STARTFONT 2.1
FONT -FontForge-Exo-Bold-R-Normal--25-240-75-75-P-129-ISO10646-1
SIZE 24 75 75
FONTBOUNDINGBOX 47 35 -13 -7
COMMENT "Generated by fontforge, http://fontforge.sourceforge.net"
COMMENT "Copyright 2017 The Exo Project Authors (https://github.com/NDISCOVER/Exo-1.0)"
STARTPROPERTIES 39
FOUNDRY "FontForge"
FAMILY_NAME "Exo"
WEIGHT_NAME "Bold"
SLANT "R"
SETWIDTH_NAME "Normal"
ADD_STYLE_NAME ""
PIXEL_SIZE 25
POINT_SIZE 240
RESOLUTION_X 75
RESOLUTION_Y 75
SPACING "P"
AVERAGE_WIDTH 129
CHARSET_REGISTRY "ISO10646"
CHARSET_ENCODING "1"
FONTNAME_REGISTRY ""
CHARSET_COLLECTIONS "ISO8859-2 ISO8859-9 ISO8859-4 ISO10646-1"
FONT_NAME "Exo-Bold"
FACE_NAME "Exo Bold"
COPYRIGHT "Copyright 2017 The Exo Project Authors (https://github.com/NDISCOVER/Exo-1.0)"
FONT_VERSION "2.000"
FONT_ASCENT 20
FONT_DESCENT 5
UNDERLINE_POSITION -3
UNDERLINE_THICKNESS 2
X_HEIGHT 12
CAP_HEIGHT 18
RAW_ASCENT 800
RAW_DESCENT 200
NORM_SPACE 6
RELATIVE_WEIGHT 70
RELATIVE_SETWIDTH 50
SUPERSCRIPT_X 0
SUPERSCRIPT_Y 8
SUPERSCRIPT_SIZE 15
SUBSCRIPT_X 0
SUBSCRIPT_Y 1
SUBSCRIPT_SIZE 15
AVG_LOWERCASE_WIDTH 135
AVG_UPPERCASE_WIDTH 159
ENDPROPERTIES
CHARS 1053
STARTCHAR zero
ENCODING 48
SWIDTH 647 0
DWIDTH 16 0
BBX 14 19 1 0
BITMAP
0FE0
3FF0
7FF8
7FFC
F03C
F03C
F03C
F03C
F03C
F03C
F03C
F03C
F03C
F03C
F03C
F87C
7FF8
7FF8
3FF0
ENDCHAR
STARTCHAR one
ENCODING 49
SWIDTH 372 0
DWIDTH 9 0
BBX 7 19 1 0
BITMAP
1E
7E
FE
FE
1E
1E
1E
1E
1E
1E
1E
1E
1E
1E
1E
1E
1E
1E
1E
ENDCHAR
STARTCHAR two
ENCODING 50
SWIDTH 586 0
DWIDTH 15 0
BBX 13 19 1 0
BITMAP
0F80
7FE0
7FF0
7FF0
00F0
00F0
00F0
00F0
00F0
01E0
03C0
0780
0F00
1E00
3C00
7800
FFF8
FFF8
FFF8
ENDCHAR
STARTCHAR three
ENCODING 51
SWIDTH 579 0
DWIDTH 14 0
BBX 12 19 1 0
BITMAP
1F80
FFE0
FFE0
FFF0
00F0
00F0
00F0
00F0
3FE0
3FC0
3FE0
01F0
00F0
0070
00F0
01F0
FFF0
FFE0
FFC0
ENDCHAR
STARTCHAR four
ENCODING 52
SWIDTH 619 0
DWIDTH 15 0
BBX 14 19 1 0
BITMAP
0380
0780
0700
0F00
0E00
1E00
1E70
3C70
3CF0
78F0
78F0
F0F0
FFFC
FFFC
FFFC
00F0
00F0
00F0
00F0
ENDCHAR
STARTCHAR five
ENCODING 53
SWIDTH 607 0
DWIDTH 15 0
BBX 13 19 1 0
BITMAP
7FF0
7FF0
7FF0
7FF0
7000
7000
7000
73C0
7FF0
7FF8
7FF8
7078
0078
0078
0078
00F8
FFF8
FFF0
FFE0
ENDCHAR
STARTCHAR six
ENCODING 54
SWIDTH 607 0
DWIDTH 15 0
BBX 13 19 1 0
BITMAP
03C0
1FF0
3FF0
7FF0
7800
7000
7000
F000
FFE0
FFF0
FFF8
F078
F078
F078
7078
7878
7FF8
3FF0
1FE0
ENDCHAR
STARTCHAR seven
ENCODING 55
SWIDTH 554 0
DWIDTH 14 0
BBX 12 19 1 0
BITMAP
FFE0
FFF0
FFF0
FFF0
01E0
01E0
01E0
03C0
03C0
07C0
0780
0780
0F00
0F00
0F00
1E00
1E00
3E00
3C00
ENDCHAR
STARTCHAR eight
ENCODING 56
SWIDTH 628 0
DWIDTH 16 0
BBX 13 19 1 0
BITMAP
0FC0
3FF0
7FF8
7FF8
7078
7078
7078
7878
7FF0
3FF0
7FF8
7878
F038
F038
F038
F878
7FF8
7FF8
3FF0
ENDCHAR
STARTCHAR nine
ENCODING 57
SWIDTH 607 0
DWIDTH 15 0
BBX 13 19 1 0
BITMAP
0F00
7FE0
7FF0
FFF0
F0F0
F078
F078
F078
FFF8
7FF8
7FF8
1F78
0078
0078
00F0
01F0
7FF0
7FE0
7F80
ENDCHAR
STARTCHAR M
ENCODING 77
SWIDTH 883 0
DWIDTH 34 0
BBX 30 28 2 0
BITMAP
1F8007E0
1F8007E0
1F800FE0
1F800FE0
3FC00FE0
3FC00FE0
3FC01FE0
3FE01FE0
3FE01FF0
3FE03FF0
3FF03FF0
3EF03DF0
7EF07DF0
7EF079F0
7EF879F0
7E7879F0
7C78F1F8
7C7CF1F8
7C3CF1F8
7C3DF1F8
7C3FE0F8
FC3FE0F8
FC1FE0F8
FC1FE0F8
FC1FC0F8
F81FC0FC
F80FC0FC
F80FC0FC
ENDCHAR
STARTCHAR b
ENCODING 98
SWIDTH 585 0
DWIDTH 15 0
BBX 13 19 1 0
BITMAP
F000
F000
F000
F000
F000
F180
FFE0
FFF0
FDF0
F070
F070
F078
F078
F078
F070
F0F0
FFF0
FFE0
F7E0
ENDCHAR
STARTCHAR m
ENCODING 109
SWIDTH 931 0
DWIDTH 23 0
BBX 21 14 1 0
BITMAP
00C1C0
F7E7F0
FFFFF0
FFFFF8
F07878
F07878
F07878
F07878
F07878
F07878
F07878
F07878
F07878
F07878
ENDCHAR
STARTCHAR p
ENCODING 112
SWIDTH 585 0
DWIDTH 15 0
BBX 13 20 1 -6
BITMAP
0100
F7E0
FFF0
FDF0
F0F0
F070
F078
F078
F078
F070
F0F0
FFF0
FFF0
F7E0
F000
F000
F000
F000
F000
F000
ENDCHAR
ENDFONT
