STARTFONT 2.1
FONT -FontForge-Exo-Bold-R-Normal--38-360-75-75-P-196-ISO10646-1
SIZE 36 75 75
FONTBOUNDINGBOX 71 52 -20 -10
COMMENT "Generated by fontforge, http://fontforge.sourceforge.net"
COMMENT "Copyright 2017 The Exo Project Authors (https://github.com/NDISCOVER/Exo-1.0)"
STARTPROPERTIES 39
FOUNDRY "FontForge"
FAMILY_NAME "Exo"
WEIGHT_NAME "Bold"
SLANT "R"
SETWIDTH_NAME "Normal"
ADD_STYLE_NAME ""
PIXEL_SIZE 38
POINT_SIZE 360
RESOLUTION_X 75
RESOLUTION_Y 75
SPACING "P"
AVERAGE_WIDTH 196
CHARSET_REGISTRY "ISO10646"
CHARSET_ENCODING "1"
FONTNAME_REGISTRY ""
CHARSET_COLLECTIONS "ISO8859-2 ISO8859-9 ISO8859-4 ISO10646-1"
FONT_NAME "Exo-Bold"
FACE_NAME "Exo Bold"
COPYRIGHT "Copyright 2017 The Exo Project Authors (https://github.com/NDISCOVER/Exo-1.0)"
FONT_VERSION "2.000"
FONT_ASCENT 30
FONT_DESCENT 8
UNDERLINE_POSITION -5
UNDERLINE_THICKNESS 2
X_HEIGHT 19
CAP_HEIGHT 27
RAW_ASCENT 800
RAW_DESCENT 200
NORM_SPACE 10
RELATIVE_WEIGHT 70
RELATIVE_SETWIDTH 50
SUPERSCRIPT_X 0
SUPERSCRIPT_Y 13
SUPERSCRIPT_SIZE 22
SUBSCRIPT_X 0
SUBSCRIPT_Y 2
SUBSCRIPT_SIZE 22
AVG_LOWERCASE_WIDTH 205
AVG_UPPERCASE_WIDTH 243
ENDPROPERTIES
CHARS 1053
STARTCHAR comma
ENCODING 44
SWIDTH 234 0
DWIDTH 9 0
BBX 5 8 2 -3
BITMAP
F8
F8
F8
F8
F8
78
F8
F0
ENDCHAR
STARTCHAR period
ENCODING 46
SWIDTH 234 0
DWIDTH 9 0
BBX 5 5 2 0
BITMAP
F8
F8
F8
F8
F8
ENDCHAR
STARTCHAR zero
ENCODING 48
SWIDTH 647 0
DWIDTH 25 0
BBX 21 28 2 0
BITMAP
0FFF80
3FFFE0
7FFFE0
7FFFF0
FFFFF0
FC03F0
FC01F0
FC01F8
FC01F8
FC01F8
FC01F8
FC01F8
FC01F8
FC01F8
FC01F8
FC01F8
FC01F8
FC01F8
FC01F8
FC01F8
FC01F8
FC01F0
FE03F0
FFFFF0
7FFFF0
7FFFE0
3FFFC0
0FFF80
ENDCHAR
STARTCHAR one
ENCODING 49
SWIDTH 372 0
DWIDTH 14 0
BBX 11 28 1 0
BITMAP
0FE0
7FE0
FFE0
FFE0
FFE0
87E0
07E0
07E0
07E0
07E0
07E0
07E0
07E0
07E0
07E0
07E0
07E0
07E0
07E0
07E0
07E0
07E0
07E0
07E0
07E0
07E0
07E0
07E0
ENDCHAR
STARTCHAR two
ENCODING 50
SWIDTH 586 0
DWIDTH 22 0
BBX 19 28 2 0
BITMAP
7FFC00
FFFF00
FFFF80
FFFF80
FFFFC0
001FC0
000FC0
000FC0
000FC0
000FC0
000FC0
001F80
001F80
003F00
007F00
00FE00
01FC00
03F800
07F000
0FE000
1FC000
3F8000
7F0000
FFFFE0
FFFFE0
FFFFE0
FFFFE0
FFFFE0
ENDCHAR
STARTCHAR three
ENCODING 51
SWIDTH 579 0
DWIDTH 22 0
BBX 19 28 1 0
BITMAP
7FFE00
7FFF80
7FFFC0
7FFFC0
7FFFE0
000FE0
0007E0
0007E0
0007E0
0007E0
0007E0
03FFC0
1FFFC0
1FFF00
1FFF80
1FFFC0
001FC0
0007E0
0007E0
0003E0
0003E0
0007E0
000FE0
FFFFE0
FFFFE0
FFFFC0
FFFF80
7FFE00
ENDCHAR
STARTCHAR four
ENCODING 52
SWIDTH 619 0
DWIDTH 24 0
BBX 22 28 1 0
BITMAP
007E00
00FC00
00FC00
01F800
01F800
03F000
03F000
07E000
07E000
0FC3E0
0FC3E0
0F87E0
1F87E0
1F07E0
3F07E0
3E07E0
7E07E0
7FFFFC
FFFFFC
FFFFFC
FFFFFC
7FFFF8
0007E0
0007E0
0007E0
0007E0
0007E0
0007E0
ENDCHAR
STARTCHAR five
ENCODING 53
SWIDTH 607 0
DWIDTH 23 0
BBX 19 28 2 0
BITMAP
7FFFC0
7FFFC0
7FFFC0
7FFFC0
7FFFC0
7C0000
7C0000
7C0000
7C0000
7C0000
7CFC00
7FFF80
7FFFC0
7FFFE0
7FFFE0
7E07E0
7C07E0
0003E0
0003E0
0003E0
0003E0
0007E0
0007E0
FFFFE0
FFFFE0
FFFFC0
FFFF80
FFFE00
ENDCHAR
STARTCHAR six
ENCODING 54
SWIDTH 607 0
DWIDTH 23 0
BBX 19 28 2 0
BITMAP
03FFC0
0FFFC0
1FFFC0
3FFFC0
3FFFC0
7F0000
7E0000
7C0000
FC0000
FC0000
FC0000
FDFE00
FFFF80
FFFFC0
FFFFE0
FFFFE0
FC07E0
FC03E0
FC03E0
FC03E0
FC03E0
7C03E0
7E07E0
7FFFE0
3FFFE0
3FFFC0
1FFFC0
07FF00
ENDCHAR
STARTCHAR seven
ENCODING 55
SWIDTH 554 0
DWIDTH 21 0
BBX 19 28 1 0
BITMAP
FFFFC0
FFFFE0
FFFFE0
FFFFE0
FFFFC0
FFFFC0
001FC0
001F80
001F80
003F80
003F00
003F00
007E00
007E00
00FE00
00FC00
00FC00
01FC00
01F800
01F800
03F800
03F000
03F000
07E000
07E000
0FE000
0FC000
1FC000
ENDCHAR
STARTCHAR eight
ENCODING 56
SWIDTH 628 0
DWIDTH 24 0
BBX 20 28 2 0
BITMAP
1FFF80
3FFFC0
7FFFC0
7FFFE0
7F0FE0
7C07E0
7C03E0
7C03E0
7C03E0
7C03E0
7E07E0
7FFFE0
3FFFC0
1FFF80
3FFFE0
7FFFE0
FE07E0
FC03F0
FC03F0
FC03F0
FC03F0
FC03F0
FC03F0
FFFFF0
7FFFE0
7FFFE0
3FFFC0
1FFF80
ENDCHAR
STARTCHAR nine
ENCODING 57
SWIDTH 607 0
DWIDTH 23 0
BBX 19 28 2 0
BITMAP
1FFE00
7FFF00
7FFF80
FFFFC0
FFFFC0
FC0FC0
F807E0
F807E0
F807E0
F807E0
FC03E0
FC03E0
FFFFE0
FFFFE0
7FFFE0
3FFFE0
0FF3E0
0007E0
0007E0
0007E0
0007E0
000FC0
001FC0
7FFF80
7FFF80
7FFF00
7FFE00
7FF800
ENDCHAR
STARTCHAR colon
ENCODING 58
SWIDTH 234 0
DWIDTH 9 0
BBX 5 20 2 0
BITMAP
F8
F8
F8
F8
F8
00
00
00
00
00
00
00
00
00
00
F8
F8
F8
F8
F8
ENDCHAR
STARTCHAR M
ENCODING 77
SWIDTH 883 0
DWIDTH 34 0
BBX 30 28 2 0
BITMAP
1F8007E0
1F8007E0
1F800FE0
1F800FE0
3FC00FE0
3FC00FE0
3FC01FE0
3FE01FE0
3FE01FF0
3FE03FF0
3FF03FF0
3EF03DF0
7EF07DF0
7EF079F0
7EF879F0
7E7879F0
7C78F1F8
7C7CF1F8
7C3CF1F8
7C3DF1F8
7C3FE0F8
FC3FE0F8
FC1FE0F8
FC1FE0F8
FC1FC0F8
F81FC0FC
F80FC0FC
F80FC0FC
ENDCHAR
STARTCHAR degree
ENCODING 176
SWIDTH 318 0
DWIDTH 12 0
BBX 10 11 1 18
BITMAP
3F00
7F80
F3C0
E1C0
C0C0
C0C0
C0C0
E1C0
7FC0
7F80
0C00
ENDCHAR
ENDFONT
