STARTFONT 2.1
COMMENT
COMMENT Converted from OpenType font "Exo-SemiBold.ttf" by "otf2bdf3\otf2bdf 3.0".
COMMENT
FONT -FreeType-Exo SemiBold-Medium-R-Normal--50-360-100-100-P-269-ISO10646-1
SIZE 36 100 100
FONTBOUNDINGBOX 46 38 0 0
STARTPROPERTIES 19
FOUNDRY "FreeType"
FAMILY_NAME "Exo SemiBold"
WEIGHT_NAME "Medium"
SLANT "R"
SETWIDTH_NAME "Normal"
ADD_STYLE_NAME ""
PIXEL_SIZE 50
POINT_SIZE 360
RESOLUTION_X 100
RESOLUTION_Y 100
SPACING "P"
AVERAGE_WIDTH 269
CHARSET_REGISTRY "ISO10646"
CHARSET_ENCODING "1"
FONT_ASCENT 50
FONT_DESCENT 16
COPYRIGHT "Copyright 2017 The Exo Project Authors (https://github.com/NDISCOVER/Exo-1.0)"
_OTF_FONTFILE "Exo-SemiBold.ttf"
_OTF_PSNAME "Exo-SemiBold"
ENDPROPERTIES
CHARS 15
STARTCHAR 0025
ENCODING 37
SWIDTH 960 0
DWIDTH 48 0
BBX 44 37 2 0
BITMAP
03F00001E000
3FFF0003C000
7FFF8003C000
FFFFC0078000
FC0FC00F8000
F003C00F0000
F003C01E0000
F003C01E0000
F003C03C0000
F003C07C0000
F003C0780000
F003C0F00000
F003C0F00000
F003C1E00000
F003C3E00000
FE1FC3C00000
FFFFC7800000
7FFF87800000
3FFF0F0FFFC0
03F01F1FFFE0
00001E1FFFF0
00003C3FFFF0
00003C3E00F0
0000783C00F0
0000F03C00F0
0000F03C00F0
0001E03C00F0
0003E03C00F0
0003C03C00F0
0007803C00F0
0007803C00F0
000F003C00F0
001F003E01F0
001E003FFFF0
003C001FFFE0
003C000FFFC0
00780007FF00
ENDCHAR
STARTCHAR 0030
ENCODING 48
SWIDTH 660 0
DWIDTH 33 0
BBX 26 37 3 0
BITMAP
03FFF800
0FFFFE00
3FFFFF00
3FFFFF80
7FFFFF80
7FC07FC0
FF001FC0
FE000FC0
FC000FC0
FC000FC0
FC000FC0
FC000FC0
FC000FC0
FC000FC0
FC000FC0
FC000FC0
FC000FC0
FC000FC0
FC000FC0
FC000FC0
FC000FC0
FC000FC0
FC000FC0
FC000FC0
FC000FC0
FC000FC0
FC000FC0
FC000FC0
FC000FC0
FE000FC0
FF001FC0
7FC0FFC0
7FFFFF80
7FFFFF80
3FFFFF00
1FFFFE00
07FFF800
ENDCHAR
STARTCHAR 0031
ENCODING 49
SWIDTH 360 0
DWIDTH 18 0
BBX 13 37 2 0
BITMAP
03F8
1FF8
7FF8
FFF8
FFF8
FFF8
C1F8
01F8
01F8
01F8
01F8
01F8
01F8
01F8
01F8
01F8
01F8
01F8
01F8
01F8
01F8
01F8
01F8
01F8
01F8
01F8
01F8
01F8
01F8
01F8
01F8
01F8
01F8
01F8
01F8
01F8
01F8
ENDCHAR
STARTCHAR 0032
ENCODING 50
SWIDTH 580 0
DWIDTH 29 0
BBX 25 37 2 0
BITMAP
1FFFC000
7FFFF800
7FFFFC00
7FFFFE00
7FFFFE00
7FFFFF00
0000FF00
00007F00
00003F00
00003F00
00003F00
00003F00
00003F00
00003F00
00007E00
00007E00
0000FE00
0001FC00
0003F800
0007F800
000FF000
001FE000
003FC000
007F8000
00FF0000
01FE0000
03FC0000
07F80000
0FF00000
1FE00000
3FC00000
7FFFFF80
FFFFFF80
FFFFFF80
FFFFFF80
FFFFFF80
FFFFFF80
ENDCHAR
STARTCHAR 0033
ENCODING 51
SWIDTH 580 0
DWIDTH 29 0
BBX 24 37 2 0
BITMAP
1FFFC0
7FFFF0
7FFFFC
7FFFFC
7FFFFE
7FFFFE
0000FF
00007F
00007F
00003F
00003F
00003F
00003F
00007F
0000FE
0007FE
1FFFFC
1FFFF8
1FFFE0
1FFFF8
1FFFFC
0001FE
00007F
00003F
00003F
00003F
00003F
00003F
00003F
00003F
00007F
FFFFFF
FFFFFE
FFFFFE
FFFFFC
FFFFF8
FFFFE0
ENDCHAR
STARTCHAR 0034
ENCODING 52
SWIDTH 620 0
DWIDTH 31 0
BBX 28 37 1 0
BITMAP
0007E000
000FE000
000FC000
001FC000
001F8000
003F0000
003F0000
007E0000
007E0000
00FC0000
00FC0000
01F81F00
01F81F00
03F01F00
03F03F00
07E03F00
07E03F00
0FC03F00
0FC03F00
1F803F00
1F803F00
3F003F00
3F003F00
7FFFFFF0
7FFFFFF0
FFFFFFF0
7FFFFFF0
7FFFFFF0
7FFFFF80
00003F00
00003F00
00003F00
00003F00
00003F00
00003F00
00003F00
00003F00
ENDCHAR
STARTCHAR 0035
ENCODING 53
SWIDTH 620 0
DWIDTH 31 0
BBX 25 37 3 0
BITMAP
3FFFFF00
3FFFFF00
3FFFFF00
3FFFFF00
3FFFFF00
3FFFFF00
3E000000
3E000000
3E000000
3E000000
3E000000
3E000000
7E000000
7E000000
7E7FF000
7EFFFC00
7FFFFE00
7FFFFF00
7FFFFF00
7FC1FF80
7F003F80
7E001F80
7E001F80
00001F80
00001F80
00001F80
00001F80
00001F80
00001F80
00003F80
00007F80
0001FF80
FFFFFF00
FFFFFF00
FFFFFE00
FFFFF800
FFFFE000
ENDCHAR
STARTCHAR 0036
ENCODING 54
SWIDTH 620 0
DWIDTH 31 0
BBX 25 37 3 0
BITMAP
007FFE00
03FFFE00
07FFFE00
0FFFFE00
1FFFFE00
1FF00000
3FC00000
3F800000
7F000000
7E000000
7E000000
FE000000
FC000000
FC000000
FC000000
FC7FC000
FFFFFC00
FFFFFE00
FFFFFF00
FFFFFF00
FFFFFF80
FC003F80
FC003F80
FC001F80
FC001F80
FC001F80
FE001F80
7E001F80
7E001F80
7F001F80
7F003F80
3FC0FF80
3FFFFF00
1FFFFF00
1FFFFE00
07FFFC00
03FFF000
ENDCHAR
STARTCHAR 0037
ENCODING 55
SWIDTH 560 0
DWIDTH 28 0
BBX 25 37 1 0
BITMAP
FFFFFF00
FFFFFF00
FFFFFF80
FFFFFF80
FFFFFF00
FFFFFF00
00007F00
00007E00
0000FE00
0000FE00
0001FC00
0001FC00
0001F800
0003F800
0003F800
0003F000
0007F000
0007F000
000FE000
000FE000
000FC000
001FC000
001FC000
003F8000
003F8000
003F8000
007F0000
007F0000
007F0000
00FE0000
00FE0000
01FC0000
01FC0000
01FC0000
03F80000
03F80000
07F80000
ENDCHAR
STARTCHAR 0038
ENCODING 56
SWIDTH 640 0
DWIDTH 32 0
BBX 25 37 3 0
BITMAP
07FFF800
0FFFFC00
1FFFFE00
3FFFFF00
7FFFFF00
7F807F00
7F003F80
7E003F80
7E001F80
7E001F80
7E001F80
7E001F80
7E001F80
7E003F00
7F003F00
3FFFFF00
3FFFFE00
1FFFFC00
0FFFFE00
3FFFFF00
7FFFFF80
7F003F80
FE001F80
FE001F80
FE001F80
FE001F80
FE001F80
FE001F80
FE001F80
FE001F80
FE001F80
FF003F80
7FFFFF80
7FFFFF80
3FFFFF00
1FFFFE00
07FFF800
ENDCHAR
STARTCHAR 0039
ENCODING 57
SWIDTH 620 0
DWIDTH 31 0
BBX 25 37 3 0
BITMAP
07FFC000
1FFFF000
7FFFF800
7FFFFC00
FFFFFE00
FF83FE00
FE00FE00
FC007F00
FC003F00
FC003F00
FC003F00
FC003F00
FC003F80
FC001F80
FC001F80
FE001F80
FFFFFF80
FFFFFF80
7FFFFF80
3FFFFF80
1FFFFF80
03FF1F80
00001F80
00001F80
00003F00
00003F00
00003F00
00003F00
00007F00
0000FE00
0001FE00
0007FC00
3FFFFC00
3FFFF800
3FFFF000
3FFFC000
3FFF0000
ENDCHAR
STARTCHAR 004D
ENCODING 77
SWIDTH 860 0
DWIDTH 43 0
BBX 39 37 2 0
BITMAP
07E0000FE0
07E0000FE0
0FE0000FE0
0FF0000FE0
0FF0001FE0
0FF0001FE0
0FF8001FE0
0FF8003FE0
0FF8003FF0
0FFC003FF0
1FFC007FF0
1FBC007FF0
1FBC007BF0
1FBE00FBF0
1FBE00FBF0
1F9E00F3F0
1F9F00F3F0
1F9F01F1F8
1F8F01F1F8
3F0F81E1F8
3F0F83E1F8
3F0F83E1F8
3F0783E1F8
3F07C7C1F8
3F07C7C1F8
3F07C7C0FC
3F03E780FC
3E03EF80FC
7E03EF80FC
7E01FF80FC
7E01FF00FC
7E01FF00FC
7E01FF00FC
7E00FE00FC
7E00FE007E
7E00FE007E
FC007E007E
ENDCHAR
STARTCHAR 0050
ENCODING 80
SWIDTH 620 0
DWIDTH 31 0
BBX 26 37 3 0
BITMAP
FFFFE000
FFFFFC00
FFFFFE00
FFFFFF00
FFFFFF00
FFFFFF80
FE003F80
FE001F80
FE001FC0
FE001FC0
FE000FC0
FE000FC0
FE000FC0
FE000FC0
FE000FC0
FE001FC0
FE001FC0
FE001F80
FE003F80
FE01FF80
FFFFFF00
FFFFFF00
FFFFFE00
FFFFFC00
FFFFF000
FE000000
FE000000
FE000000
FE000000
FE000000
FE000000
FE000000
FE000000
FE000000
FE000000
FE000000
FE000000
ENDCHAR
STARTCHAR 0061
ENCODING 97
SWIDTH 540 0
DWIDTH 27 0
BBX 22 27 2 0
BITMAP
07FF80
3FFFE0
3FFFF8
3FFFF8
3FFFFC
0001FC
0000FC
0000FC
0000FC
0000FC
0000FC
03FFFC
1FFFFC
3FFFFC
7FE0FC
FE00FC
FC00FC
FC00FC
FC00FC
FC00FC
FC00FC
FE00FC
FF0FFC
FFFFFC
7FFF7C
3FFC7C
1FF07C
ENDCHAR
STARTCHAR 0068
ENCODING 104
SWIDTH 600 0
DWIDTH 30 0
BBX 24 38 3 0
BITMAP
FC0000
FC0000
FC0000
FC0000
FC0000
FC0000
FC0000
FC0000
FC0000
FC0000
FC0000
FC1FE0
FC7FF8
FDFFFC
FFFFFC
FFFFFE
FFF3FE
FF00FE
FC007F
FC007F
FC007F
FC007F
FC007F
FC007F
FC007F
FC007F
FC007F
FC007F
FC007F
FC007F
FC007F
FC007F
FC007F
FC007F
FC007F
FC007F
FC007F
FC007F
ENDCHAR
ENDFONT
