STARTFONT 2.1
COMMENT
COMMENT Converted from OpenType font "Exo-SemiBold.ttf" by "otf2bdf3\otf2bdf 3.0".
COMMENT
FONT -FreeType-Exo SemiBold-Medium-R-Normal--25-180-100-100-P-124-ISO10646-1
SIZE 18 100 100
FONTBOUNDINGBOX 22 25 0 -6
STARTPROPERTIES 19
FOUNDRY "FreeType"
FAMILY_NAME "Exo SemiBold"
WEIGHT_NAME "Medium"
SLANT "R"
SETWIDTH_NAME "Normal"
ADD_STYLE_NAME ""
PIXEL_SIZE 25
POINT_SIZE 180
RESOLUTION_X 100
RESOLUTION_Y 100
SPACING "P"
AVERAGE_WIDTH 124
CHARSET_REGISTRY "ISO10646"
CHARSET_ENCODING "1"
FONT_ASCENT 25
FONT_DESCENT 8
COPYRIGHT "Copyright 2017 The Exo Project Authors (https://github.com/NDISCOVER/Exo-1.0)"
_OTF_FONTFILE "Exo-SemiBold.ttf"
_OTF_PSNAME "Exo-SemiBold"
ENDPROPERTIES
CHARS 16
STARTCHAR 002D
ENCODING 45
SWIDTH 360 0
DWIDTH 9 0
BBX 7 3 1 6
BITMAP
FE
FE
FE
ENDCHAR
STARTCHAR 002E
ENCODING 46
SWIDTH 240 0
DWIDTH 6 0
BBX 3 3 1 0
BITMAP
E0
E0
E0
ENDCHAR
STARTCHAR 0030
ENCODING 48
SWIDTH 640 0
DWIDTH 16 0
BBX 13 19 2 0
BITMAP
1F80
7FE0
FFF0
F070
E078
E038
E038
E038
E038
E038
E038
E038
E038
E038
E038
E078
FFF0
FFF0
3FE0
ENDCHAR
STARTCHAR 0031
ENCODING 49
SWIDTH 360 0
DWIDTH 9 0
BBX 6 19 1 0
BITMAP
1C
7C
FC
FC
1C
1C
1C
1C
1C
1C
1C
1C
1C
1C
1C
1C
1C
1C
1C
ENDCHAR
STARTCHAR 0032
ENCODING 50
SWIDTH 600 0
DWIDTH 15 0
BBX 13 19 1 0
BITMAP
0700
7FE0
7FE0
01F0
0070
0070
0070
0070
00E0
01E0
03C0
0780
0F00
1E00
3C00
7800
FFF8
FFF8
FFF8
ENDCHAR
STARTCHAR 0033
ENCODING 51
SWIDTH 600 0
DWIDTH 15 0
BBX 12 19 1 0
BITMAP
0F00
FFC0
FFE0
01F0
0070
0070
0070
00F0
3FE0
3FC0
3FE0
00F0
0070
0070
0070
0070
FFF0
FFE0
FFC0
ENDCHAR
STARTCHAR 0034
ENCODING 52
SWIDTH 600 0
DWIDTH 15 0
BBX 14 18 1 0
BITMAP
0780
0700
0F00
0E00
1E00
1C70
3C70
38F0
78F0
70F0
F0F0
FFFC
FFFC
FFF8
00F0
00F0
00F0
00F0
ENDCHAR
STARTCHAR 0035
ENCODING 53
SWIDTH 600 0
DWIDTH 15 0
BBX 12 18 2 0
BITMAP
FFE0
FFE0
E000
E000
E000
E000
E000
FFE0
FFF0
F0F0
E070
0070
0070
0070
00F0
FFF0
FFE0
FFC0
ENDCHAR
STARTCHAR 0036
ENCODING 54
SWIDTH 600 0
DWIDTH 15 0
BBX 13 19 1 0
BITMAP
03C0
1FF0
3FF0
3C00
7800
7000
7000
7000
FFC0
FFF0
FFF8
F038
7038
7038
7038
7038
7FF8
3FF0
1FE0
ENDCHAR
STARTCHAR 0037
ENCODING 55
SWIDTH 560 0
DWIDTH 14 0
BBX 12 18 1 0
BITMAP
FFF0
FFF0
FFE0
00E0
01E0
01C0
01C0
03C0
0380
0780
0700
0700
0F00
0E00
0E00
1E00
1C00
3C00
ENDCHAR
STARTCHAR 0038
ENCODING 56
SWIDTH 640 0
DWIDTH 16 0
BBX 12 19 2 0
BITMAP
0F00
7FE0
FFF0
E0F0
E070
E070
E070
E0F0
FFE0
3FE0
FFF0
E070
E070
E070
E070
E070
FFF0
FFF0
7FE0
ENDCHAR
STARTCHAR 0039
ENCODING 57
SWIDTH 600 0
DWIDTH 15 0
BBX 13 19 1 0
BITMAP
0F80
7FE0
7FF0
F0F0
F070
E038
E038
F038
F038
7FF8
3FF8
0038
0038
0038
0070
00F0
7FE0
7FE0
7F80
ENDCHAR
STARTCHAR 004D
ENCODING 77
SWIDTH 880 0
DWIDTH 22 0
BBX 19 18 1 0
BITMAP
3C0380
3C03C0
3C07C0
3E07C0
3E07C0
3E0FC0
3E0DC0
770DC0
730DC0
731DC0
7398E0
7198E0
71B8E0
71F8E0
71F0E0
E0F0E0
E0F0E0
E0E0E0
ENDCHAR
STARTCHAR 0062
ENCODING 98
SWIDTH 600 0
DWIDTH 15 0
BBX 11 19 2 0
BITMAP
E000
E000
E000
E000
E000
E200
FFC0
FFE0
E1E0
E0E0
E0E0
E0E0
E0E0
E0E0
E0E0
E0E0
FBE0
FFC0
CF80
ENDCHAR
STARTCHAR 006D
ENCODING 109
SWIDTH 920 0
DWIDTH 23 0
BBX 20 14 2 0
BITMAP
010180
DFCFE0
FFFFE0
F1F8F0
E0E070
E0E070
E0E070
E0E070
E0E070
E0E070
E0E070
E0E070
E0E070
E0E070
ENDCHAR
STARTCHAR 0070
ENCODING 112
SWIDTH 600 0
DWIDTH 15 0
BBX 11 20 2 -6
BITMAP
0200
FFC0
FFC0
E1E0
E0E0
E0E0
E0E0
E0E0
E0E0
E0E0
E0E0
FBE0
FFC0
FF80
E000
E000
E000
E000
E000
E000
ENDCHAR
ENDFONT
