STARTFONT 2.1
COMMENT
COMMENT Converted from OpenType font "Exo-SemiBold.ttf" by "otf2bdf3\otf2bdf 3.0".
COMMENT
FONT -FreeType-Exo SemiBold-Medium-R-Normal--56-360-112-112-P-301-ISO10646-1
SIZE 36 112 112
FONTBOUNDINGBOX 52 43 0 0
STARTPROPERTIES 19
FOUNDRY "FreeType"
FAMILY_NAME "Exo SemiBold"
WEIGHT_NAME "Medium"
SLANT "R"
SETWIDTH_NAME "Normal"
ADD_STYLE_NAME ""
PIXEL_SIZE 56
POINT_SIZE 360
RESOLUTION_X 112
RESOLUTION_Y 112
SPACING "P"
AVERAGE_WIDTH 301
CHARSET_REGISTRY "ISO10646"
CHARSET_ENCODING "1"
FONT_ASCENT 56
FONT_DESCENT 18
COPYRIGHT "Copyright 2017 The Exo Project Authors (https://github.com/NDISCOVER/Exo-1.0)"
_OTF_FONTFILE "Exo-SemiBold.ttf"
_OTF_PSNAME "Exo-SemiBold"
ENDPROPERTIES
CHARS 15
STARTCHAR 0025
ENCODING 37
SWIDTH 964 0
DWIDTH 54 0
BBX 50 41 2 0
BITMAP
0FFF80001F0000
3FFFE0003E0000
7FFFF0007C0000
7FFFF000780000
FF07F000F80000
F800F800F00000
F800F801F00000
F800F803E00000
F800F803C00000
F800F807C00000
F800F807800000
F800F80F800000
F800F81F000000
F800F81E000000
F800F83E000000
F800F87C000000
FC01F87C000000
7FFFF0F8000000
7FFFF0F0000000
3FFFE1F00FE000
1FFFC3E0FFFE00
000003E1FFFF00
000007C3FFFF80
00000783FFFF80
00000F87E00FC0
00001F07C007C0
00001E07C007C0
00003E07C007C0
00003C07C007C0
00007C07C007C0
0000F807C007C0
0000F007C007C0
0001F007C007C0
0003E007C007C0
0003E007C007C0
0007C007E00FC0
00078003FFFF80
000F8003FFFF80
001F0003FFFF80
001F0001FFFF00
003E00007FF800
ENDCHAR
STARTCHAR 0030
ENCODING 48
SWIDTH 642 0
DWIDTH 36 0
BBX 30 42 3 0
BITMAP
003FF800
03FFFF80
0FFFFFE0
1FFFFFF0
3FFFFFF0
3FFFFFF8
7FFFFFF8
7F8007F8
7F0003FC
7F0001FC
FF0001FC
FE0001FC
FE0001FC
FE0001FC
FE0001FC
FE0001FC
FE0001FC
FE0001FC
FE0001FC
FE0001FC
FE0001FC
FE0001FC
FE0001FC
FE0001FC
FE0001FC
FE0001FC
FE0001FC
FE0001FC
FE0001FC
FE0001FC
FE0001FC
FE0001FC
FF0001FC
7F0003FC
7F8003FC
7FC00FF8
7FFFFFF8
3FFFFFF8
3FFFFFF0
1FFFFFE0
0FFFFFC0
03FFFF00
ENDCHAR
STARTCHAR 0031
ENCODING 49
SWIDTH 375 0
DWIDTH 21 0
BBX 15 42 2 0
BITMAP
00FE
03FE
1FFE
7FFE
FFFE
FFFE
FFFE
F8FE
00FE
00FE
00FE
00FE
00FE
00FE
00FE
00FE
00FE
00FE
00FE
00FE
00FE
00FE
00FE
00FE
00FE
00FE
00FE
00FE
00FE
00FE
00FE
00FE
00FE
00FE
00FE
00FE
00FE
00FE
00FE
00FE
00FE
00FE
ENDCHAR
STARTCHAR 0032
ENCODING 50
SWIDTH 589 0
DWIDTH 33 0
BBX 28 42 3 0
BITMAP
001F0000
7FFFF800
7FFFFE00
7FFFFF00
7FFFFF80
7FFFFF80
7FFFFFC0
0000FFC0
00003FC0
00001FC0
00001FC0
00001FC0
00001FC0
00001FC0
00001FC0
00001FC0
00001FC0
00003F80
00007F80
00007F00
0000FF00
0001FE00
0003FC00
0007F800
000FF000
001FE000
003FC000
007F8000
00FF0000
01FE0000
03FC0000
07F80000
0FF00000
1FE00000
3FC00000
7F800000
FFFFFFF0
FFFFFFF0
FFFFFFF0
FFFFFFF0
FFFFFFF0
FFFFFFF0
ENDCHAR
STARTCHAR 0033
ENCODING 51
SWIDTH 589 0
DWIDTH 33 0
BBX 27 42 2 0
BITMAP
007F8000
7FFFFC00
7FFFFE00
7FFFFF80
7FFFFF80
7FFFFFC0
7FFFFFC0
00007FE0
00001FE0
00001FE0
00000FE0
00000FE0
00000FE0
00000FE0
00000FE0
00000FE0
00001FC0
00007FC0
07FFFF80
0FFFFF00
0FFFFE00
0FFFFC00
0FFFFF00
0FFFFF80
0000FFC0
00001FC0
00000FE0
00000FE0
00000FE0
00000FE0
00000FE0
00000FE0
00000FE0
00000FE0
00001FE0
0000FFE0
FFFFFFE0
FFFFFFC0
FFFFFFC0
FFFFFF80
FFFFFE00
3FFFF800
ENDCHAR
STARTCHAR 0034
ENCODING 52
SWIDTH 607 0
DWIDTH 34 0
BBX 32 41 1 0
BITMAP
0003FC00
0003F800
0007F000
0007F000
000FE000
000FE000
001FC000
001FC000
003F8000
003F8000
007F0000
007F0000
00FE03E0
00FE07E0
01FC07E0
01FC07E0
03F80FE0
03F80FE0
07F00FE0
07F00FE0
0FE00FE0
0FE00FE0
1FC00FE0
1FC00FE0
3F800FE0
3F800FE0
7FFFFFFF
7FFFFFFF
FFFFFFFF
7FFFFFFF
7FFFFFFF
3FFFFFF0
00000FE0
00000FE0
00000FE0
00000FE0
00000FE0
00000FE0
00000FE0
00000FE0
00000FE0
ENDCHAR
STARTCHAR 0035
ENCODING 53
SWIDTH 625 0
DWIDTH 35 0
BBX 28 41 4 0
BITMAP
3FFFFFC0
3FFFFFC0
3FFFFFC0
3FFFFFC0
7FFFFFC0
7FFFFFC0
7F000000
7F000000
7F000000
7F000000
7E000000
7E000000
7E000000
7E000000
7E000000
7E1FE000
7EFFFE00
7FFFFF00
7FFFFF80
7FFFFFC0
7FFFFFE0
7FC07FE0
7F001FE0
7F000FE0
7E000FF0
000007F0
000007F0
000007F0
000007F0
000007F0
000007F0
00000FF0
00000FE0
00001FE0
00003FE0
FFFFFFE0
FFFFFFC0
FFFFFF80
FFFFFF00
FFFFFE00
FFFFF000
ENDCHAR
STARTCHAR 0036
ENCODING 54
SWIDTH 607 0
DWIDTH 34 0
BBX 28 42 3 0
BITMAP
0003F000
007FFFC0
01FFFFC0
03FFFFC0
07FFFFC0
0FFFFFC0
1FFFFFC0
1FF00000
3FC00000
3F800000
3F800000
7F000000
7F000000
7F000000
7E000000
7E000000
FE000000
FE000000
FFFFFE00
FFFFFF80
FFFFFFC0
FFFFFFE0
FFFFFFF0
FFFFFFF0
FE000FF0
FE0007F0
FE0007F0
FE0003F0
7E0003F0
7F0003F0
7F0003F0
7F0003F0
7F0007F0
7F8007F0
3FC007F0
3FE01FF0
3FFFFFF0
1FFFFFF0
0FFFFFE0
0FFFFFC0
03FFFF80
00FFFE00
ENDCHAR
STARTCHAR 0037
ENCODING 55
SWIDTH 553 0
DWIDTH 31 0
BBX 28 41 1 0
BITMAP
FFFFFFE0
FFFFFFE0
FFFFFFF0
FFFFFFF0
FFFFFFE0
FFFFFFE0
FFFFFFE0
00001FC0
00003FC0
00003FC0
00003F80
00007F80
00007F80
00007F00
0000FF00
0000FE00
0001FE00
0001FE00
0001FC00
0003FC00
0003FC00
0003F800
0007F800
0007F000
000FF000
000FF000
000FE000
001FE000
001FE000
001FC000
003FC000
003F8000
007F8000
007F8000
007F0000
00FF0000
00FF0000
01FE0000
01FE0000
01FE0000
03FC0000
ENDCHAR
STARTCHAR 0038
ENCODING 56
SWIDTH 625 0
DWIDTH 35 0
BBX 28 42 4 0
BITMAP
00FFF000
07FFFE00
1FFFFF80
3FFFFF80
7FFFFFC0
7FFFFFC0
7F803FE0
7F001FE0
7F000FE0
7E000FE0
7E000FE0
7E000FE0
7E000FE0
7E000FE0
7E000FE0
7F000FE0
7F001FE0
7F803FC0
3FFFFFC0
3FFFFF80
0FFFFF00
1FFFFFC0
3FFFFFC0
7FFFFFE0
FF801FE0
FF000FF0
FE0007F0
FE0007F0
FE0007F0
FE0007F0
FE0007F0
FE0007F0
FE0007F0
FE0007F0
FE000FF0
FF001FF0
FFFFFFE0
FFFFFFE0
7FFFFFE0
3FFFFFC0
1FFFFF80
07FFFE00
ENDCHAR
STARTCHAR 0039
ENCODING 57
SWIDTH 607 0
DWIDTH 34 0
BBX 28 42 3 0
BITMAP
007FC000
07FFFC00
1FFFFE00
3FFFFF00
7FFFFF80
7FFFFFC0
FFFFFFC0
FF003FC0
FE001FE0
FE000FE0
FE000FE0
FE0007F0
FE0007F0
FE0007F0
FE0007F0
FE0007F0
FE0007F0
FF0007F0
FF8007F0
FFFFFFF0
7FFFFFF0
3FFFFFF0
3FFFFFF0
0FFFFFF0
01FFE7F0
000007F0
000007F0
000007F0
000007F0
000007E0
00000FE0
00000FE0
00001FE0
00001FC0
00003FC0
0000FF80
3FFFFF80
3FFFFF00
3FFFFE00
3FFFFC00
3FFFF800
3FFFC000
ENDCHAR
STARTCHAR 004D
ENCODING 77
SWIDTH 875 0
DWIDTH 49 0
BBX 43 41 3 0
BITMAP
0FE00001FC00
0FF00001FC00
0FF00003FC00
0FF00003FC00
0FF80003FE00
0FF80007FE00
0FF80007FE00
0FFC0007FE00
1FFC0007FE00
1FFC000FFE00
1FFC000FFE00
1FFE000FFE00
1FFE001F7E00
1FFE001F7F00
1F9F001F7F00
1F9F003F7F00
1F9F003E7F00
3F9F803E7F00
3F8F803E7F00
3F8F807C3F00
3F8FC07C3F00
3F8FC07C3F80
3F07C0FC3F80
3F07C0F83F80
3F07E0F83F80
3F03E1F83F80
7F03E1F03F80
7F03F1F01F80
7F03F1F01F80
7F01F3F01F80
7F01FBE01FC0
7E01FBE01FC0
7E00FFE01FC0
7E00FFE01FC0
FE00FFC01FC0
FE00FFC01FC0
FE007FC00FC0
FE007F800FC0
FE007F800FE0
FE003F800FE0
FC003F800FE0
ENDCHAR
STARTCHAR 0050
ENCODING 80
SWIDTH 607 0
DWIDTH 34 0
BBX 28 41 4 0
BITMAP
FFFFFC00
FFFFFF00
FFFFFF80
FFFFFFC0
FFFFFFE0
FFFFFFE0
FE001FF0
FE000FF0
FE0007F0
FE0007F0
FE0007F0
FE0007F0
FE0007F0
FE0007F0
FE0007F0
FE0007F0
FE0007F0
FE0007F0
FE0007F0
FE000FF0
FE001FE0
FFFFFFE0
FFFFFFE0
FFFFFFC0
FFFFFF80
FFFFFF00
FFFFFE00
FE07E000
FE000000
FE000000
FE000000
FE000000
FE000000
FE000000
FE000000
FE000000
FE000000
FE000000
FE000000
FE000000
FE000000
ENDCHAR
STARTCHAR 0061
ENCODING 97
SWIDTH 553 0
DWIDTH 31 0
BBX 25 30 2 0
BITMAP
0FFFF000
3FFFFC00
3FFFFE00
3FFFFF00
3FFFFF80
0000FF80
00007F80
00003F80
00003F80
00003F80
00003F80
00003F80
007FFF80
0FFFFF80
1FFFFF80
3FFFFF80
7FC03F80
7F003F80
FE003F80
FE003F80
FE003F80
FE003F80
FE003F80
FE003F80
FF00FF80
FFFFFF80
7FFFFF80
7FFFDF80
3FFF1F80
0FF80F80
ENDCHAR
STARTCHAR 0068
ENCODING 104
SWIDTH 589 0
DWIDTH 33 0
BBX 26 43 4 0
BITMAP
FC000000
FC000000
FC000000
FC000000
FC000000
FC000000
FC000000
FC000000
FC000000
FC000000
FC000000
FC000000
FC008000
FC1FF800
FC7FFE00
FDFFFF00
FFFFFF00
FFFFFF80
FFFFFF80
FFC07F80
FF003FC0
FC003FC0
FC001FC0
FC001FC0
FC001FC0
FC001FC0
FC001FC0
FC001FC0
FC001FC0
FC001FC0
FC001FC0
FC001FC0
FC001FC0
FC001FC0
FC001FC0
FC001FC0
FC001FC0
FC001FC0
FC001FC0
FC001FC0
FC001FC0
FC001FC0
FC001FC0
ENDCHAR
ENDFONT
