STARTFONT 2.1
COMMENT
COMMENT Converted from OpenType font "Exo-Bold.ttf" by "otf2bdf3\otf2bdf 3.0".
COMMENT
FONT -FreeType-Exo-Bold-R-Normal--112-720-112-112-P-542-ISO10646-1
SIZE 72 112 112
FONTBOUNDINGBOX 94 86 0 -1
STARTPROPERTIES 19
FOUNDRY "FreeType"
FAMILY_NAME "Exo"
WEIGHT_NAME "Bold"
SLANT "R"
SETWIDTH_NAME "Normal"
ADD_STYLE_NAME ""
PIXEL_SIZE 112
POINT_SIZE 720
RESOLUTION_X 112
RESOLUTION_Y 112
SPACING "P"
AVERAGE_WIDTH 542
CHARSET_REGISTRY "ISO10646"
CHARSET_ENCODING "1"
FONT_ASCENT 112
FONT_DESCENT 36
COPYRIGHT "Copyright 2017 The Exo Project Authors (https://github.com/NDISCOVER/Exo-1.0)"
_OTF_FONTFILE "Exo-Bold.ttf"
_OTF_PSNAME "Exo-Bold"
ENDPROPERTIES
CHARS 13
STARTCHAR 002E
ENCODING 46
SWIDTH 232 0
DWIDTH 26 0
BBX 14 16 6 0
BITMAP
7FFC
FFFC
FFFC
FFFC
FFFC
FFFC
FFFC
FFFC
FFFC
FFFC
FFFC
FFFC
FFFC
FFFC
FFFC
7FFC
ENDCHAR
STARTCHAR 0030
ENCODING 48
SWIDTH 642 0
DWIDTH 72 0
BBX 60 84 6 0
BITMAP
00000FFFFF000000
0003FFFFFFFE0000
001FFFFFFFFFC000
007FFFFFFFFFF000
00FFFFFFFFFFF800
01FFFFFFFFFFFC00
03FFFFFFFFFFFE00
07FFFFFFFFFFFF00
0FFFFFFFFFFFFF80
1FFFFFFFFFFFFF80
1FFFFFFFFFFFFFC0
3FFFFFFFFFFFFFC0
3FFFFFFFFFFFFFE0
7FFFFFFFFFFFFFE0
7FFFFFFFFFFFFFE0
7FFFFE0007FFFFF0
7FFFF00000FFFFF0
7FFFE000003FFFF0
FFFFC000003FFFF0
FFFFC000001FFFF0
FFFF8000001FFFF0
FFFF8000001FFFF0
FFFF8000000FFFF0
FFFF8000000FFFF0
FFFF8000000FFFF0
FFFF8000000FFFF0
FFFF8000000FFFF0
FFFF8000000FFFF0
FFFF8000000FFFF0
FFFF8000000FFFF0
FFFF8000000FFFF0
FFFF8000000FFFF0
FFFF8000000FFFF0
FFFF8000000FFFF0
FFFF8000000FFFF0
FFFF8000000FFFF0
FFFF8000000FFFF0
FFFF8000000FFFF0
FFFF8000000FFFF0
FFFF8000000FFFF0
FFFF8000000FFFF0
FFFF8000000FFFF0
FFFF8000000FFFF0
FFFF8000000FFFF0
FFFF8000000FFFF0
FFFF8000000FFFF0
FFFF8000000FFFF0
FFFF8000000FFFF0
FFFF8000000FFFF0
FFFF8000000FFFF0
FFFF8000000FFFF0
FFFF8000000FFFF0
FFFF8000000FFFF0
FFFF8000000FFFF0
FFFF8000000FFFF0
FFFF8000000FFFF0
FFFF8000000FFFF0
FFFF8000000FFFF0
FFFF8000000FFFF0
FFFF8000000FFFF0
FFFF8000000FFFF0
FFFF8000000FFFF0
FFFF8000000FFFF0
FFFF8000001FFFF0
FFFF8000001FFFF0
FFFFC000001FFFF0
FFFFC000003FFFF0
FFFFE000007FFFF0
7FFFF80000FFFFF0
7FFFFF800FFFFFF0
7FFFFFFFFFFFFFE0
7FFFFFFFFFFFFFE0
3FFFFFFFFFFFFFE0
3FFFFFFFFFFFFFC0
3FFFFFFFFFFFFFC0
1FFFFFFFFFFFFF80
0FFFFFFFFFFFFF80
0FFFFFFFFFFFFF00
07FFFFFFFFFFFE00
03FFFFFFFFFFFC00
01FFFFFFFFFFF800
007FFFFFFFFFE000
001FFFFFFFFFC000
0003FFFFFFFE0000
ENDCHAR
STARTCHAR 0031
ENCODING 49
SWIDTH 375 0
DWIDTH 42 0
BBX 32 84 3 0
BITMAP
00007FFF
0003FFFF
000FFFFF
003FFFFF
01FFFFFF
07FFFFFF
1FFFFFFF
FFFFFFFF
FFFFFFFF
FFFFFFFF
FFFFFFFF
FFFFFFFF
FFFFFFFF
FFFFFFFF
FFFFFFFF
FFFFFFFF
FFF9FFFF
F801FFFF
0001FFFF
0001FFFF
0001FFFF
0001FFFF
0001FFFF
0001FFFF
0001FFFF
0001FFFF
0001FFFF
0001FFFF
0001FFFF
0001FFFF
0001FFFF
0001FFFF
0001FFFF
0001FFFF
0001FFFF
0001FFFF
0001FFFF
0001FFFF
0001FFFF
0001FFFF
0001FFFF
0001FFFF
0001FFFF
0001FFFF
0001FFFF
0001FFFF
0001FFFF
0001FFFF
0001FFFF
0001FFFF
0001FFFF
0001FFFF
0001FFFF
0001FFFF
0001FFFF
0001FFFF
0001FFFF
0001FFFF
0001FFFF
0001FFFF
0001FFFF
0001FFFF
0001FFFF
0001FFFF
0001FFFF
0001FFFF
0001FFFF
0001FFFF
0001FFFF
0001FFFF
0001FFFF
0001FFFF
0001FFFF
0001FFFF
0001FFFF
0001FFFF
0001FFFF
0001FFFF
0001FFFF
0001FFFF
0001FFFF
0001FFFF
0001FFFF
0001FFFF
ENDCHAR
STARTCHAR 0032
ENCODING 50
SWIDTH 589 0
DWIDTH 66 0
BBX 57 84 5 0
BITMAP
0000001C00000000
000FFFFFFE000000
03FFFFFFFFC00000
3FFFFFFFFFF80000
3FFFFFFFFFFC0000
3FFFFFFFFFFF0000
3FFFFFFFFFFF8000
3FFFFFFFFFFFC000
3FFFFFFFFFFFC000
3FFFFFFFFFFFE000
3FFFFFFFFFFFF000
3FFFFFFFFFFFF000
3FFFFFFFFFFFF000
3FFFFFFFFFFFF800
3FFFFFFFFFFFF800
3FFFFFFFFFFFF800
00000003FFFFFC00
000000007FFFFC00
000000001FFFFC00
000000000FFFFC00
000000000FFFFC00
0000000007FFFC00
0000000007FFFC00
0000000007FFFC00
0000000007FFFC00
0000000003FFFC00
0000000003FFFC00
0000000007FFFC00
0000000007FFFC00
0000000007FFFC00
0000000007FFF800
0000000007FFF800
000000000FFFF800
000000000FFFF800
000000001FFFF000
000000003FFFF000
000000003FFFE000
000000007FFFE000
00000000FFFFC000
00000001FFFFC000
00000003FFFF8000
00000003FFFF8000
00000007FFFF0000
0000000FFFFE0000
0000001FFFFC0000
0000003FFFFC0000
0000007FFFF80000
000001FFFFF00000
000003FFFFE00000
000007FFFFC00000
00000FFFFF800000
00001FFFFF000000
00003FFFFE000000
00007FFFFC000000
0000FFFFF8000000
0001FFFFF0000000
0003FFFFE0000000
0007FFFFC0000000
000FFFFF80000000
001FFFFF00000000
003FFFFE00000000
007FFFFC00000000
00FFFFF800000000
01FFFFF000000000
03FFFFE000000000
07FFFFC000000000
0FFFFF8000000000
1FFFFF0000000000
3FFFFE0000000000
7FFFFFFFFFFFFF80
FFFFFFFFFFFFFF80
FFFFFFFFFFFFFF80
FFFFFFFFFFFFFF80
FFFFFFFFFFFFFF80
FFFFFFFFFFFFFF80
FFFFFFFFFFFFFF80
FFFFFFFFFFFFFF80
FFFFFFFFFFFFFF80
FFFFFFFFFFFFFF80
FFFFFFFFFFFFFF80
FFFFFFFFFFFFFF80
FFFFFFFFFFFFFF80
FFFFFFFFFFFFFF80
FFFFFFFFFFFFFF80
ENDCHAR
STARTCHAR 0033
ENCODING 51
SWIDTH 580 0
DWIDTH 65 0
BBX 56 85 4 -1
BITMAP
000000FF800000
000FFFFFFF0000
07FFFFFFFFE000
3FFFFFFFFFF800
3FFFFFFFFFFE00
3FFFFFFFFFFF00
3FFFFFFFFFFF80
3FFFFFFFFFFFC0
3FFFFFFFFFFFE0
3FFFFFFFFFFFF0
3FFFFFFFFFFFF0
3FFFFFFFFFFFF8
3FFFFFFFFFFFF8
3FFFFFFFFFFFF8
3FFFFFFFFFFFFC
3FFFFFFFFFFFFC
00000003FFFFFC
000000003FFFFC
000000001FFFFC
000000000FFFFC
0000000007FFFC
0000000007FFFC
0000000003FFFC
0000000003FFFC
0000000003FFFC
0000000003FFFC
0000000003FFFC
0000000003FFFC
0000000003FFFC
0000000003FFFC
0000000007FFFC
0000000007FFFC
000000000FFFFC
000000003FFFF8
00000001FFFFF8
0000FFFFFFFFF8
00FFFFFFFFFFF0
00FFFFFFFFFFE0
00FFFFFFFFFFC0
00FFFFFFFFFF80
00FFFFFFFFFF00
00FFFFFFFFFC00
00FFFFFFFFF800
00FFFFFFFFFE00
00FFFFFFFFFF80
00FFFFFFFFFFC0
00FFFFFFFFFFE0
00FFFFFFFFFFF0
00FFFFFFFFFFF0
0000000FFFFFF8
000000003FFFF8
000000000FFFFC
0000000007FFFC
0000000003FFFE
0000000003FFFE
0000000001FFFE
0000000001FFFE
0000000001FFFE
0000000001FFFF
0000000001FFFF
0000000001FFFF
0000000001FFFF
0000000001FFFF
0000000001FFFF
0000000003FFFF
0000000003FFFF
0000000007FFFE
000000001FFFFE
00000000FFFFFE
FFFFFFFFFFFFFE
FFFFFFFFFFFFFE
FFFFFFFFFFFFFE
FFFFFFFFFFFFFC
FFFFFFFFFFFFFC
FFFFFFFFFFFFF8
FFFFFFFFFFFFF8
FFFFFFFFFFFFF0
FFFFFFFFFFFFE0
FFFFFFFFFFFFC0
FFFFFFFFFFFF80
FFFFFFFFFFFF00
FFFFFFFFFFFC00
7FFFFFFFFFF000
007FFFFFFF8000
000001FFE00000
ENDCHAR
STARTCHAR 0034
ENCODING 52
SWIDTH 616 0
DWIDTH 69 0
BBX 64 83 3 0
BITMAP
0000003FFFE00000
0000003FFFE00000
0000007FFFC00000
0000007FFFC00000
000000FFFF800000
000000FFFF800000
000001FFFF000000
000001FFFF000000
000001FFFE000000
000003FFFE000000
000003FFFE000000
000007FFFC000000
000007FFFC000000
00000FFFF8000000
00000FFFF8000000
00001FFFF0000000
00001FFFF0000000
00003FFFE0000000
00003FFFE0000000
00007FFFC0000000
00007FFFC0000000
0000FFFF80000000
0000FFFF80000000
0001FFFF00000000
0001FFFF00000000
0001FFFE00000000
0003FFFE003FFF00
0003FFFE003FFF00
0007FFFC007FFF00
0007FFFC007FFF00
000FFFF8007FFF00
000FFFF800FFFF00
001FFFF000FFFF00
001FFFF000FFFF00
003FFFE001FFFF00
003FFFE001FFFF00
007FFFC001FFFF00
007FFFC001FFFF00
00FFFF8001FFFF00
00FFFF8001FFFF00
00FFFF0001FFFF00
01FFFF0001FFFF00
01FFFE0001FFFF00
03FFFE0001FFFF00
03FFFE0001FFFF00
07FFFC0001FFFF00
07FFFC0001FFFF00
0FFFF80001FFFF00
0FFFF80001FFFF00
1FFFF00001FFFF00
1FFFF00001FFFF00
3FFFFFFFFFFFFFFF
3FFFFFFFFFFFFFFF
7FFFFFFFFFFFFFFF
7FFFFFFFFFFFFFFF
7FFFFFFFFFFFFFFF
FFFFFFFFFFFFFFFF
FFFFFFFFFFFFFFFF
FFFFFFFFFFFFFFFF
FFFFFFFFFFFFFFFF
7FFFFFFFFFFFFFFF
7FFFFFFFFFFFFFFF
3FFFFFFFFFFFFFFF
3FFFFFFFFFFFFFFC
3FFFFFFFFFFFFFE0
0000000001FFFF00
0000000001FFFF00
0000000001FFFF00
0000000001FFFF00
0000000001FFFF00
0000000001FFFF00
0000000001FFFF00
0000000001FFFF00
0000000001FFFF00
0000000001FFFF00
0000000001FFFF00
0000000001FFFF00
0000000001FFFF00
0000000001FFFF00
0000000001FFFF00
0000000001FFFF00
0000000001FFFF00
0000000001FFFF00
ENDCHAR
STARTCHAR 0035
ENCODING 53
SWIDTH 607 0
DWIDTH 68 0
BBX 56 84 7 -1
BITMAP
1FFFFFFFFFFFF8
1FFFFFFFFFFFF8
1FFFFFFFFFFFF8
1FFFFFFFFFFFF8
1FFFFFFFFFFFF8
1FFFFFFFFFFFF8
1FFFFFFFFFFFF8
1FFFFFFFFFFFF8
1FFFFFFFFFFFF8
1FFFFFFFFFFFF8
1FFFFFFFFFFFF8
1FFFFFFFFFFFF8
3FFFFFFFFFFFF8
3FFFFFFFFFFFF8
3FFFFFFFFFFFF8
3FFF8000000000
3FFF8000000000
3FFF8000000000
3FFF8000000000
3FFF8000000000
3FFF8000000000
3FFF8000000000
3FFF8000000000
3FFF8000000000
3FFF8000000000
3FFF8000000000
3FFF8000000000
3FFF8000000000
3FFF8000000000
3FFF8000000000
3FFF8000000000
3FFF81FFFFC000
3FFF8FFFFFF800
3FFF3FFFFFFE00
7FFF7FFFFFFF80
7FFFFFFFFFFFC0
7FFFFFFFFFFFE0
7FFFFFFFFFFFF0
7FFFFFFFFFFFF8
7FFFFFFFFFFFF8
7FFFFFFFFFFFFC
7FFFFFFFFFFFFC
7FFFFFFFFFFFFE
7FFFFFFFFFFFFE
7FFFFFFFFFFFFE
7FFFF8003FFFFF
7FFFE0000FFFFF
7FFFC00003FFFF
7FFF800003FFFF
7FFF800001FFFF
7FFF800001FFFF
0000000001FFFF
0000000001FFFF
0000000001FFFF
0000000001FFFF
0000000001FFFF
0000000001FFFF
0000000001FFFF
0000000001FFFF
0000000001FFFF
0000000001FFFF
0000000001FFFF
0000000001FFFF
0000000001FFFF
0000000003FFFF
0000000007FFFF
000000000FFFFF
000000001FFFFF
00000001FFFFFE
FFFFFFFFFFFFFE
FFFFFFFFFFFFFE
FFFFFFFFFFFFFE
FFFFFFFFFFFFFC
FFFFFFFFFFFFFC
FFFFFFFFFFFFF8
FFFFFFFFFFFFF0
FFFFFFFFFFFFE0
FFFFFFFFFFFFC0
FFFFFFFFFFFF80
FFFFFFFFFFFE00
FFFFFFFFFFF800
FFFFFFFFFFE000
01FFFFFFFF0000
0000007C000000
ENDCHAR
STARTCHAR 0036
ENCODING 54
SWIDTH 607 0
DWIDTH 68 0
BBX 57 85 6 -1
BITMAP
0000000700000000
000003FFFFFF0000
00003FFFFFFFF000
0000FFFFFFFFF000
0003FFFFFFFFF000
000FFFFFFFFFF000
001FFFFFFFFFF000
003FFFFFFFFFF000
007FFFFFFFFFF000
00FFFFFFFFFFF000
01FFFFFFFFFFF000
01FFFFFFFFFFF000
03FFFFFFFFFFF000
07FFFFFFFFFFF000
07FFFFFFFFFFF000
0FFFFFFE00000000
0FFFFFC000000000
0FFFFF0000000000
1FFFFC0000000000
1FFFF80000000000
1FFFF00000000000
3FFFF00000000000
3FFFE00000000000
3FFFC00000000000
7FFFC00000000000
7FFFC00000000000
7FFF800000000000
7FFF800000000000
7FFF800000000000
7FFF800000000000
FFFF800000000000
FFFF000000000000
FFFF000000000000
FFFF000000000000
FFFF00FFFFC00000
FFFF3FFFFFFC0000
FFFFFFFFFFFF0000
FFFFFFFFFFFFC000
FFFFFFFFFFFFE000
FFFFFFFFFFFFF800
FFFFFFFFFFFFF800
FFFFFFFFFFFFFC00
FFFFFFFFFFFFFE00
FFFFFFFFFFFFFE00
FFFFFFFFFFFFFF00
FFFFFFFFFFFFFF00
FFFFFFFFFFFFFF00
FFFFFFFFFFFFFF00
FFFF00001FFFFF80
FFFF000003FFFF80
FFFF000001FFFF80
FFFF000000FFFF80
FFFF000000FFFF80
FFFF000000FFFF80
FFFF000000FFFF80
FFFF800000FFFF80
FFFF800000FFFF80
FFFF800000FFFF80
FFFF800000FFFF80
7FFF800000FFFF80
7FFF800000FFFF80
7FFFC00000FFFF80
7FFFC00000FFFF80
7FFFC00000FFFF80
7FFFE00000FFFF80
3FFFE00000FFFF80
3FFFF00001FFFF80
3FFFF80001FFFF80
3FFFFC0003FFFF80
1FFFFFC01FFFFF80
1FFFFFFFFFFFFF80
1FFFFFFFFFFFFF00
0FFFFFFFFFFFFF00
0FFFFFFFFFFFFF00
07FFFFFFFFFFFE00
07FFFFFFFFFFFE00
03FFFFFFFFFFFC00
01FFFFFFFFFFFC00
00FFFFFFFFFFF800
007FFFFFFFFFF000
003FFFFFFFFFE000
001FFFFFFFFF8000
0007FFFFFFFE0000
0000FFFFFFF00000
000000FFFE000000
ENDCHAR
STARTCHAR 0037
ENCODING 55
SWIDTH 553 0
DWIDTH 62 0
BBX 56 83 3 0
BITMAP
FFFFFFFFFFFFF0
FFFFFFFFFFFFF8
FFFFFFFFFFFFF8
FFFFFFFFFFFFFC
FFFFFFFFFFFFFE
FFFFFFFFFFFFFE
FFFFFFFFFFFFFF
FFFFFFFFFFFFFF
FFFFFFFFFFFFFF
FFFFFFFFFFFFFE
FFFFFFFFFFFFFE
FFFFFFFFFFFFFE
FFFFFFFFFFFFFC
FFFFFFFFFFFFFC
FFFFFFFFFFFFFC
FFFFFFFFFFFFF8
FFFFFFFFFFFFF8
000000001FFFF8
000000003FFFF0
000000003FFFF0
000000007FFFE0
000000007FFFE0
000000007FFFE0
00000000FFFFC0
00000000FFFFC0
00000000FFFFC0
00000001FFFF80
00000001FFFF80
00000003FFFF80
00000003FFFF00
00000003FFFF00
00000007FFFE00
00000007FFFE00
00000007FFFE00
0000000FFFFC00
0000000FFFFC00
0000001FFFFC00
0000001FFFF800
0000001FFFF800
0000003FFFF800
0000003FFFF000
0000003FFFF000
0000007FFFE000
0000007FFFE000
0000007FFFE000
000000FFFFC000
000000FFFFC000
000001FFFFC000
000001FFFF8000
000001FFFF8000
000003FFFF8000
000003FFFF0000
000003FFFF0000
000007FFFE0000
000007FFFE0000
00000FFFFE0000
00000FFFFC0000
00000FFFFC0000
00001FFFFC0000
00001FFFF80000
00001FFFF80000
00003FFFF80000
00003FFFF00000
00007FFFF00000
00007FFFF00000
00007FFFE00000
0000FFFFE00000
0000FFFFC00000
0000FFFFC00000
0001FFFFC00000
0001FFFF800000
0003FFFF800000
0003FFFF800000
0003FFFF000000
0007FFFF000000
0007FFFF000000
0007FFFE000000
000FFFFE000000
000FFFFC000000
000FFFFC000000
001FFFFC000000
001FFFF8000000
003FFFF8000000
ENDCHAR
STARTCHAR 0038
ENCODING 56
SWIDTH 625 0
DWIDTH 70 0
BBX 58 84 6 0
BITMAP
000007FFFC000000
0003FFFFFFF80000
001FFFFFFFFF0000
007FFFFFFFFFC000
00FFFFFFFFFFE000
01FFFFFFFFFFF000
03FFFFFFFFFFF800
07FFFFFFFFFFFC00
0FFFFFFFFFFFFC00
0FFFFFFFFFFFFE00
1FFFFFFFFFFFFE00
1FFFFFFFFFFFFE00
1FFFFFFFFFFFFF00
3FFFFFFFFFFFFF00
3FFFFFFFFFFFFF00
3FFFF80003FFFF00
3FFFF00001FFFF00
3FFFE00001FFFF00
3FFFE00000FFFF00
3FFFC00000FFFF00
3FFFC00000FFFF00
3FFFC00000FFFF00
3FFFC00000FFFF00
3FFFC00000FFFF00
3FFFC00000FFFF00
3FFFC00000FFFF00
3FFFC00000FFFF00
3FFFC00000FFFF00
3FFFC00000FFFF00
3FFFC00000FFFF00
3FFFE00000FFFF00
3FFFE00001FFFF00
1FFFF00001FFFF00
1FFFF80003FFFE00
1FFFFF003FFFFE00
1FFFFFFFFFFFFC00
0FFFFFFFFFFFFC00
0FFFFFFFFFFFF800
07FFFFFFFFFFF000
03FFFFFFFFFFE000
01FFFFFFFFFF8000
007FFFFFFFFFF000
01FFFFFFFFFFF800
03FFFFFFFFFFFC00
07FFFFFFFFFFFE00
0FFFFFFFFFFFFF00
1FFFFFFFFFFFFF00
3FFFFFFFFFFFFF80
3FFFFFFFFFFFFF80
7FFFF80003FFFF80
7FFFF00001FFFF80
7FFFE00000FFFFC0
7FFFC000007FFFC0
7FFFC000007FFFC0
FFFF8000007FFFC0
FFFF8000007FFFC0
FFFF8000007FFFC0
FFFF8000007FFFC0
FFFF8000007FFFC0
FFFF8000007FFFC0
FFFF8000007FFFC0
FFFF8000007FFFC0
FFFF8000007FFFC0
FFFF8000007FFFC0
FFFF8000007FFFC0
FFFF8000007FFFC0
FFFFC000007FFFC0
7FFFC00000FFFFC0
7FFFE00000FFFFC0
7FFFF00001FFFFC0
7FFFFFFFFFFFFFC0
7FFFFFFFFFFFFF80
7FFFFFFFFFFFFF80
7FFFFFFFFFFFFF80
3FFFFFFFFFFFFF80
3FFFFFFFFFFFFF00
1FFFFFFFFFFFFF00
1FFFFFFFFFFFFE00
0FFFFFFFFFFFFC00
07FFFFFFFFFFFC00
03FFFFFFFFFFF800
00FFFFFFFFFFE000
003FFFFFFFFF8000
0007FFFFFFFC0000
ENDCHAR
STARTCHAR 0039
ENCODING 57
SWIDTH 607 0
DWIDTH 68 0
BBX 58 84 5 -1
BITMAP
0007FFFFFF800000
003FFFFFFFF00000
00FFFFFFFFFC0000
01FFFFFFFFFE0000
07FFFFFFFFFF0000
0FFFFFFFFFFF8000
0FFFFFFFFFFFC000
1FFFFFFFFFFFE000
3FFFFFFFFFFFF000
3FFFFFFFFFFFF000
3FFFFFFFFFFFF800
7FFFFFFFFFFFF800
7FFFFFFFFFFFFC00
7FFFFFFFFFFFFC00
7FFFFF03FFFFFC00
FFFFF0001FFFFE00
FFFFE0000FFFFE00
FFFFC00007FFFE00
FFFF800003FFFF00
FFFF800001FFFF00
FFFF800001FFFF00
FFFF800001FFFF00
FFFF800000FFFF00
FFFF800000FFFF80
FFFF800000FFFF80
FFFF800000FFFF80
FFFF800000FFFF80
FFFF8000007FFF80
FFFF8000007FFF80
FFFF8000007FFF80
FFFF8000007FFF80
FFFF8000007FFF80
FFFFC000007FFF80
FFFFC000007FFF80
FFFFF000007FFF80
7FFFFE00007FFFC0
7FFFFFFFFFFFFFC0
7FFFFFFFFFFFFFC0
7FFFFFFFFFFFFFC0
3FFFFFFFFFFFFFC0
3FFFFFFFFFFFFFC0
1FFFFFFFFFFFFFC0
1FFFFFFFFFFFFFC0
0FFFFFFFFFFFFFC0
07FFFFFFFFFFFFC0
03FFFFFFFFFFFFC0
01FFFFFFFFFFFF80
007FFFFFFFFFFF80
001FFFFFFE7FFF80
0001FFFFC07FFF80
00000000007FFF80
00000000007FFF80
00000000007FFF80
00000000007FFF80
0000000000FFFF80
0000000000FFFF80
0000000000FFFF00
0000000000FFFF00
0000000001FFFF00
0000000001FFFF00
0000000001FFFF00
0000000003FFFE00
0000000003FFFE00
0000000007FFFE00
000000000FFFFC00
000000001FFFFC00
000000003FFFFC00
00000000FFFFF800
0000001FFFFFF800
07FFFFFFFFFFF000
07FFFFFFFFFFF000
07FFFFFFFFFFE000
07FFFFFFFFFFE000
07FFFFFFFFFFC000
07FFFFFFFFFF8000
07FFFFFFFFFF0000
07FFFFFFFFFE0000
07FFFFFFFFFC0000
07FFFFFFFFF80000
07FFFFFFFFE00000
07FFFFFFFF800000
07FFFFFFFE000000
007FFFFFF0000000
0000047000000000
ENDCHAR
STARTCHAR 004D
ENCODING 77
SWIDTH 883 0
DWIDTH 99 0
BBX 89 83 5 0
BITMAP
003FFFC000000001FFFE0000
007FFFC000000001FFFE0000
007FFFC000000001FFFF0000
007FFFC000000003FFFF0000
007FFFE000000003FFFF0000
007FFFE000000003FFFF0000
007FFFE000000003FFFF0000
007FFFF000000007FFFF0000
007FFFF000000007FFFF0000
00FFFFF000000007FFFF0000
00FFFFF80000000FFFFF0000
00FFFFF80000000FFFFF8000
00FFFFF80000000FFFFF8000
00FFFFF80000001FFFFF8000
00FFFFFC0000001FFFFF8000
00FFFFFC0000001FFFFF8000
00FFFFFC0000001FFFFF8000
00FFFFFE0000003FFFFF8000
01FFFFFE0000003FFFFF8000
01FFFFFE0000003FFFFFC000
01FFFFFF0000007FFFFFC000
01FFFFFF0000007FFFFFC000
01FFFFFF0000007FFFFFC000
01FFFFFF000000FFFFFFC000
01FFFFFF800000FFFFFFC000
01FFFFFF800000FFFFFFC000
03FFFFFF800000FFFFFFC000
03FFFFFFC00001FFFFFFC000
03FFFFFFC00001FFFFFFE000
03FFFFFFC00001FFDFFFE000
03FFFFFFE00003FFDFFFE000
03FFFDFFE00003FFDFFFE000
03FFFDFFE00003FFDFFFE000
03FFFDFFE00007FF9FFFE000
03FFF9FFF00007FF9FFFE000
07FFF8FFF00007FF9FFFE000
07FFF8FFF00007FF9FFFF000
07FFF8FFF8000FFF0FFFF000
07FFF87FF8000FFF0FFFF000
07FFF87FF8000FFF0FFFF000
07FFF87FFC001FFE0FFFF000
07FFF87FFC001FFE0FFFF000
07FFF83FFC001FFE0FFFF000
07FFF03FFC003FFE0FFFF000
0FFFF03FFE003FFC0FFFF000
0FFFF03FFE003FFC07FFF800
0FFFF01FFE003FFC07FFF800
0FFFF01FFF007FFC07FFF800
0FFFF01FFF007FF807FFF800
0FFFF01FFF007FF807FFF800
0FFFF00FFF80FFF807FFF800
0FFFF00FFF80FFF807FFF800
1FFFE00FFF80FFF007FFF800
1FFFE007FF81FFF007FFFC00
1FFFE007FFC1FFF003FFFC00
1FFFE007FFC1FFE003FFFC00
1FFFE007FFC1FFE003FFFC00
1FFFE003FFE3FFE003FFFC00
1FFFE003FFE3FFE003FFFC00
1FFFE003FFE3FFC003FFFC00
1FFFE003FFF7FFC003FFFC00
3FFFC001FFF7FFC003FFFC00
3FFFC001FFF7FFC001FFFE00
3FFFC001FFF7FF8001FFFE00
3FFFC000FFFFFF8001FFFE00
3FFFC000FFFFFF8001FFFE00
3FFFC000FFFFFF8001FFFE00
3FFFC000FFFFFF0001FFFE00
3FFFC0007FFFFF0001FFFE00
7FFF80007FFFFF0001FFFE00
7FFF80007FFFFE0001FFFF00
7FFF80007FFFFE0000FFFF00
7FFF80003FFFFE0000FFFF00
7FFF80003FFFFE0000FFFF00
7FFF80003FFFFC0000FFFF00
7FFF80001FFFFC0000FFFF00
7FFF80001FFFFC0000FFFF00
7FFF80001FFFFC0000FFFF00
FFFF00001FFFF80000FFFF00
FFFF00000FFFF800007FFF80
FFFF00000FFFF800007FFF80
FFFF00000FFFF800007FFF80
FFFF00000FFFF000007FFF80
ENDCHAR
STARTCHAR 00BA
ENCODING 186
SWIDTH 428 0
DWIDTH 48 0
BBX 42 57 3 28
BITMAP
0001FFE00000
003FFFFF0000
00FFFFFFC000
03FFFFFFF000
07FFFFFFF800
0FFFFFFFFC00
1FFFFFFFFC00
3FFFFFFFFE00
3FFFFFFFFF00
3FFFFFFFFF00
7FFFFFFFFF00
7FFF807FFF80
7FFF003FFF80
7FFE003FFF80
FFFE001FFF80
FFFE001FFF80
FFFE001FFFC0
FFFE001FFFC0
FFFE001FFFC0
FFFE001FFFC0
FFFC001FFFC0
FFFC001FFFC0
FFFC001FFFC0
FFFC001FFFC0
FFFC001FFFC0
FFFE001FFFC0
FFFE001FFFC0
FFFE001FFFC0
FFFE001FFFC0
FFFE001FFFC0
FFFE001FFF80
7FFE003FFF80
7FFF003FFF80
7FFF807FFF80
7FFFF3FFFF00
3FFFFFFFFF00
3FFFFFFFFF00
1FFFFFFFFE00
1FFFFFFFFE00
0FFFFFFFFC00
07FFFFFFF800
03FFFFFFF000
00FFFFFFC000
003FFFFF0000
0003FFF00000
000000000000
000000000000
000000000000
000000000000
7FFFFFFFFF80
7FFFFFFFFF80
7FFFFFFFFF80
7FFFFFFFFF80
7FFFFFFFFF80
7FFFFFFFFF80
7FFFFFFFFF80
7FFFFFFFFF80
ENDCHAR
ENDFONT
