STARTFONT 2.1
COMMENT
COMMENT Converted from OpenType font "Exo-SemiBold.ttf" by "otf2bdf3\otf2bdf 3.0".
COMMENT
FONT -FreeType-Exo SemiBold-Medium-R-Normal--28-180-112-112-P-134-ISO10646-1
SIZE 18 112 112
FONTBOUNDINGBOX 36 36 -1 -8
STARTPROPERTIES 19
FOUNDRY "FreeType"
FAMILY_NAME "Exo SemiBold"
WEIGHT_NAME "Medium"
SLANT "R"
SETWIDTH_NAME "Normal"
ADD_STYLE_NAME ""
PIXEL_SIZE 28
POINT_SIZE 180
RESOLUTION_X 112
RESOLUTION_Y 112
SPACING "P"
AVERAGE_WIDTH 134
CHARSET_REGISTRY "ISO10646"
CHARSET_ENCODING "1"
FONT_ASCENT 28
FONT_DESCENT 9
COPYRIGHT "Copyright 2017 The Exo Project Authors (https://github.com/NDISCOVER/Exo-1.0)"
_OTF_FONTFILE "Exo-SemiBold.ttf"
_OTF_PSNAME "Exo-SemiBold"
ENDPROPERTIES
CHARS 190
STARTCHAR 0020
ENCODING 32
SWIDTH 250 0
DWIDTH 7 0
BBX 0 0 0 0
BITMAP
ENDCHAR
STARTCHAR 0021
ENCODING 33
SWIDTH 285 0
DWIDTH 8 0
BBX 3 21 2 0
BITMAP
E0
E0
E0
E0
E0
E0
E0
E0
E0
E0
E0
E0
E0
E0
E0
00
00
E0
E0
E0
E0
ENDCHAR
STARTCHAR 0022
ENCODING 34
SWIDTH 357 0
DWIDTH 10 0
BBX 8 7 1 14
BITMAP
E7
E7
E7
E7
E7
E7
E7
ENDCHAR
STARTCHAR 0023
ENCODING 35
SWIDTH 714 0
DWIDTH 20 0
BBX 19 21 0 0
BITMAP
01C700
01C700
018600
018600
018600
018E00
038E00
3FFFE0
7FFFE0
030C00
030C00
031C00
071C00
7FFFC0
FFFFC0
061800
061800
0E3800
0E3800
0C3000
0C3000
ENDCHAR
STARTCHAR 0024
ENCODING 36
SWIDTH 607 0
DWIDTH 17 0
BBX 14 25 1 -2
BITMAP
0100
0300
0FE0
3FF8
7FF8
7808
F000
F000
F000
F000
7000
7FE0
7FF8
3FF8
007C
003C
001C
001C
001C
003C
7FF8
7FF8
7FE0
0300
0300
ENDCHAR
STARTCHAR 0025
ENCODING 37
SWIDTH 964 0
DWIDTH 27 0
BBX 25 21 1 0
BITMAP
0E007000
7FC06000
FFC0E000
C0C0C000
C0C18000
C0C38000
C0C30000
C0C70000
E0C60000
FFCC0000
7F9CFE00
0019FF00
0039E780
00318180
00618180
00E18180
00C18180
01818180
0381C780
0301FF00
0700FE00
ENDCHAR
STARTCHAR 0026
ENCODING 38
SWIDTH 678 0
DWIDTH 19 0
BBX 17 21 1 0
BITMAP
01C000
0FF800
1FF800
1F0000
1C0000
1C0000
1C0000
1E0000
0F0000
0F8000
3F8100
3FC180
79E380
F0E700
E0FE00
E07C00
F07C00
F0FC00
7FEE00
7FCF00
1F8780
ENDCHAR
STARTCHAR 0027
ENCODING 39
SWIDTH 214 0
DWIDTH 6 0
BBX 3 7 1 14
BITMAP
E0
E0
E0
E0
E0
E0
E0
ENDCHAR
STARTCHAR 0028
ENCODING 40
SWIDTH 357 0
DWIDTH 10 0
BBX 8 30 2 -6
BITMAP
0F
0E
1E
1C
3C
38
78
70
70
F0
F0
F0
E0
E0
E0
E0
E0
E0
F0
F0
F0
70
70
78
38
3C
1C
1E
0E
07
ENDCHAR
STARTCHAR 0029
ENCODING 41
SWIDTH 357 0
DWIDTH 10 0
BBX 9 30 0 -6
BITMAP
F000
7800
3800
3C00
1C00
1E00
0E00
0F00
0F00
0700
0700
0700
0700
0780
0780
0780
0780
0700
0700
0700
0F00
0F00
0E00
0E00
1E00
1C00
3C00
3800
7800
F000
ENDCHAR
STARTCHAR 002A
ENCODING 42
SWIDTH 428 0
DWIDTH 12 0
BBX 10 10 1 11
BITMAP
0400
0C00
0400
76C0
F5C0
0300
1D00
3600
3380
2080
ENDCHAR
STARTCHAR 002B
ENCODING 43
SWIDTH 607 0
DWIDTH 17 0
BBX 13 12 2 4
BITMAP
0700
0700
0700
0700
0700
FFF8
FFF8
0700
0700
0700
0700
0700
ENDCHAR
STARTCHAR 002C
ENCODING 44
SWIDTH 214 0
DWIDTH 6 0
BBX 3 6 2 -2
BITMAP
E0
E0
E0
E0
E0
C0
ENDCHAR
STARTCHAR 002D
ENCODING 45
SWIDTH 357 0
DWIDTH 10 0
BBX 8 3 1 7
BITMAP
FF
FF
FF
ENDCHAR
STARTCHAR 002E
ENCODING 46
SWIDTH 214 0
DWIDTH 6 0
BBX 3 4 2 0
BITMAP
E0
E0
E0
E0
ENDCHAR
STARTCHAR 002F
ENCODING 47
SWIDTH 428 0
DWIDTH 12 0
BBX 12 24 0 -2
BITMAP
00F0
00F0
00E0
01E0
01E0
01C0
03C0
03C0
0380
0780
0780
0700
0F00
0F00
0E00
1E00
1C00
1C00
3C00
3800
3800
7800
7000
F000
ENDCHAR
STARTCHAR 0030
ENCODING 48
SWIDTH 642 0
DWIDTH 18 0
BBX 14 21 2 0
BITMAP
1FE0
7FF8
FFFC
F83C
F01C
E01C
E01C
E01C
E01C
E01C
E01C
E01C
E01C
E01C
E01C
E01C
E01C
F03C
FFFC
7FF8
3FF0
ENDCHAR
STARTCHAR 0031
ENCODING 49
SWIDTH 357 0
DWIDTH 10 0
BBX 7 21 1 0
BITMAP
1E
7E
FE
FE
0E
0E
0E
0E
0E
0E
0E
0E
0E
0E
0E
0E
0E
0E
0E
0E
0E
ENDCHAR
STARTCHAR 0032
ENCODING 50
SWIDTH 571 0
DWIDTH 16 0
BBX 14 21 1 0
BITMAP
1FC0
7FF0
7FF8
01F8
003C
003C
003C
003C
0038
0078
00F0
01E0
03C0
0780
0F00
1E00
3C00
7800
FFFC
FFFC
FFFC
ENDCHAR
STARTCHAR 0033
ENCODING 51
SWIDTH 571 0
DWIDTH 16 0
BBX 14 21 1 0
BITMAP
3FC0
7FF0
7FF8
01F8
0038
0038
0038
0038
0078
3FF0
3FE0
3FF0
0078
003C
003C
003C
003C
007C
FFF8
FFF8
FFE0
ENDCHAR
STARTCHAR 0034
ENCODING 52
SWIDTH 607 0
DWIDTH 17 0
BBX 15 21 1 0
BITMAP
01C0
03C0
0380
0780
0700
0F00
0E00
1E38
1C38
3C38
3838
7838
7038
FFFE
FFFE
FFFE
0038
0038
0038
0038
0038
ENDCHAR
STARTCHAR 0035
ENCODING 53
SWIDTH 607 0
DWIDTH 17 0
BBX 14 21 2 0
BITMAP
7FF8
7FF8
7FF8
7000
7000
7000
7000
7000
F7E0
FFF8
FFF8
F87C
F03C
003C
003C
003C
003C
007C
FFF8
FFF0
FFE0
ENDCHAR
STARTCHAR 0036
ENCODING 54
SWIDTH 607 0
DWIDTH 17 0
BBX 14 21 2 0
BITMAP
07F0
1FF0
3FF0
7C00
7000
F000
E000
E000
E000
FFF0
FFF8
FFF8
E03C
E03C
E03C
E03C
F03C
F83C
7FF8
3FF8
1FF0
ENDCHAR
STARTCHAR 0037
ENCODING 55
SWIDTH 535 0
DWIDTH 15 0
BBX 14 21 1 0
BITMAP
FFF8
FFFC
FFF8
FFF8
0078
00F0
00F0
00E0
01E0
01E0
01C0
03C0
03C0
0780
0780
0780
0F00
0F00
0E00
1E00
1E00
ENDCHAR
STARTCHAR 0038
ENCODING 56
SWIDTH 642 0
DWIDTH 18 0
BBX 14 21 2 0
BITMAP
1FE0
7FF8
7FF8
F078
F038
F038
F038
F038
F078
7FF8
3FF0
7FF8
F03C
E03C
E03C
E03C
E03C
F03C
FFFC
7FF8
3FF0
ENDCHAR
STARTCHAR 0039
ENCODING 57
SWIDTH 607 0
DWIDTH 17 0
BBX 15 21 1 0
BITMAP
0FC0
3FF0
7FF8
787C
F03C
F01C
F01C
F01C
701E
7E1E
7FFE
3FFE
001E
001C
001C
001C
003C
0078
3FF8
3FF0
3FC0
ENDCHAR
STARTCHAR 003A
ENCODING 58
SWIDTH 214 0
DWIDTH 6 0
BBX 3 15 2 0
BITMAP
E0
E0
E0
E0
00
00
00
00
00
00
00
E0
E0
E0
E0
ENDCHAR
STARTCHAR 003B
ENCODING 59
SWIDTH 214 0
DWIDTH 6 0
BBX 3 17 2 -2
BITMAP
E0
E0
E0
E0
00
00
00
00
00
00
00
E0
E0
E0
E0
E0
C0
ENDCHAR
STARTCHAR 003C
ENCODING 60
SWIDTH 607 0
DWIDTH 17 0
BBX 11 11 3 4
BITMAP
0020
03E0
1FE0
FF80
FC00
F000
FF00
3FE0
07E0
00E0
0020
ENDCHAR
STARTCHAR 003D
ENCODING 61
SWIDTH 607 0
DWIDTH 17 0
BBX 13 8 2 6
BITMAP
FFF8
FFF8
0000
0000
0000
0000
FFF8
FFF8
ENDCHAR
STARTCHAR 003E
ENCODING 62
SWIDTH 607 0
DWIDTH 17 0
BBX 11 11 3 4
BITMAP
8000
F800
FF00
3FE0
07E0
01E0
1FE0
FF80
FC00
E000
8000
ENDCHAR
STARTCHAR 003F
ENCODING 63
SWIDTH 535 0
DWIDTH 15 0
BBX 12 21 1 0
BITMAP
0700
7FC0
FFE0
F3F0
00F0
00F0
0070
0070
00F0
00F0
1FE0
1FE0
1F80
1C00
1C00
0000
0000
1C00
1C00
1C00
1C00
ENDCHAR
STARTCHAR 0040
ENCODING 64
SWIDTH 892 0
DWIDTH 25 0
BBX 21 26 2 -5
BITMAP
003E00
1FFFC0
1FFFE0
0000F0
000070
000030
1FFC30
7FFE38
FFFE38
E00738
C00738
C00738
C3FF38
C7FF38
C70738
C60738
C60738
C71F38
C7FF38
C3F738
C18030
E00030
E00070
FFFFF0
7FFFE0
1FFF80
ENDCHAR
STARTCHAR 0041
ENCODING 65
SWIDTH 678 0
DWIDTH 19 0
BBX 17 21 1 0
BITMAP
03E000
03E000
03E000
077000
077000
077000
0F7800
0E3800
0E3800
1E3C00
1C1C00
1C1C00
3C1E00
3FFE00
3FFE00
7FFF00
780F00
700700
F00780
F00780
E00380
ENDCHAR
STARTCHAR 0042
ENCODING 66
SWIDTH 607 0
DWIDTH 17 0
BBX 14 21 2 0
BITMAP
FF80
FFF0
FFF8
E0F8
E038
E03C
E038
E038
E078
FFF0
FFE0
FFF8
E03C
E01C
E01C
E01C
E01C
E03C
FFFC
FFF8
FFE0
ENDCHAR
STARTCHAR 0043
ENCODING 67
SWIDTH 571 0
DWIDTH 16 0
BBX 14 21 1 0
BITMAP
07F0
1FFC
3FFC
3E04
7800
7000
7000
7000
F000
F000
F000
F000
F000
7000
7000
7000
7800
7C00
3FFC
1FFC
0FFC
ENDCHAR
STARTCHAR 0044
ENCODING 68
SWIDTH 678 0
DWIDTH 19 0
BBX 16 21 2 0
BITMAP
FFC0
FFF8
FFFC
E0FC
E01E
E01E
E00E
E00E
E00E
E00F
E00F
E00F
E00E
E00E
E00E
E01E
E01E
E03C
FFFC
FFF8
FFE0
ENDCHAR
STARTCHAR 0045
ENCODING 69
SWIDTH 607 0
DWIDTH 17 0
BBX 13 21 2 0
BITMAP
1FE0
7FF8
FFF8
FFF8
F000
E000
E000
E000
E000
FFF0
FFF0
FFF0
E000
E000
E000
E000
E000
F000
FFF8
7FF8
3FF8
ENDCHAR
STARTCHAR 0046
ENCODING 70
SWIDTH 571 0
DWIDTH 16 0
BBX 13 21 2 0
BITMAP
1FE0
7FF8
FFF8
FFF8
F000
E000
E000
E000
E000
E000
FFF0
FFF0
FFF0
E000
E000
E000
E000
E000
E000
E000
E000
ENDCHAR
STARTCHAR 0047
ENCODING 71
SWIDTH 678 0
DWIDTH 19 0
BBX 16 21 1 0
BITMAP
07F0
1FFE
3FFE
7E06
7800
7000
7000
7000
F000
F00E
F0FF
F0FF
F00F
F00F
700F
700F
780F
7C1F
3FFF
3FFF
0FC7
ENDCHAR
STARTCHAR 0048
ENCODING 72
SWIDTH 678 0
DWIDTH 19 0
BBX 16 21 2 0
BITMAP
E00F
E00F
E00F
E00F
E00F
E00F
E00F
E00F
E00F
FFFF
FFFF
FFFF
E00F
E00F
E00F
E00F
E00F
E00F
E00F
E00F
E00F
ENDCHAR
STARTCHAR 0049
ENCODING 73
SWIDTH 250 0
DWIDTH 7 0
BBX 3 21 2 0
BITMAP
E0
E0
E0
E0
E0
E0
E0
E0
E0
E0
E0
E0
E0
E0
E0
E0
E0
E0
E0
E0
E0
ENDCHAR
STARTCHAR 004A
ENCODING 74
SWIDTH 392 0
DWIDTH 11 0
BBX 8 21 1 0
BITMAP
07
07
07
07
07
07
07
07
07
07
07
07
07
07
07
07
07
0F
FF
FE
FC
ENDCHAR
STARTCHAR 004B
ENCODING 75
SWIDTH 642 0
DWIDTH 18 0
BBX 15 21 2 0
BITMAP
E01E
E01C
E03C
E078
E078
E0F0
E0F0
E1E0
E1C0
FFC0
FF80
FFC0
E1C0
E1E0
E0E0
E0F0
E070
E078
E03C
E03C
E01E
ENDCHAR
STARTCHAR 004C
ENCODING 76
SWIDTH 535 0
DWIDTH 15 0
BBX 12 21 2 0
BITMAP
E000
E000
E000
E000
E000
E000
E000
E000
E000
E000
E000
E000
E000
E000
E000
E000
E000
F000
FFF0
7FF0
3FF0
ENDCHAR
STARTCHAR 004D
ENCODING 77
SWIDTH 857 0
DWIDTH 24 0
BBX 22 21 1 0
BITMAP
1C00E0
1C00F0
3E01F0
3E01F0
3E01F0
3F01F0
3F03F0
3B0370
3B8370
3B8778
398778
798678
79CE38
79CE38
70CE38
70EC38
70FC38
70FC38
70783C
70783C
F0783C
ENDCHAR
STARTCHAR 004E
ENCODING 78
SWIDTH 714 0
DWIDTH 20 0
BBX 16 21 2 0
BITMAP
E00F
F00F
F00F
F80F
FC0F
FC0F
FE0F
FF0F
F70F
F38F
F38F
F1CF
F0EF
F0EF
F07F
F03F
F03F
F01F
F01F
F00F
F007
ENDCHAR
STARTCHAR 004F
ENCODING 79
SWIDTH 678 0
DWIDTH 19 0
BBX 17 21 1 0
BITMAP
03F000
1FFC00
3FFE00
3E1F00
780F00
780780
700780
700780
F00380
F00380
F00380
F00380
F00380
700780
700780
700780
780700
7C0F00
3FFF00
1FFE00
0FF800
ENDCHAR
STARTCHAR 0050
ENCODING 80
SWIDTH 607 0
DWIDTH 17 0
BBX 14 21 2 0
BITMAP
FFC0
FFF0
FFF8
E0FC
E03C
E01C
E01C
E01C
E01C
E03C
E03C
FFF8
FFF8
FFF0
E000
E000
E000
E000
E000
E000
E000
ENDCHAR
STARTCHAR 0051
ENCODING 81
SWIDTH 678 0
DWIDTH 19 0
BBX 17 26 1 -5
BITMAP
03F000
1FFC00
3FFE00
3E1F00
780F00
780780
700780
700780
F00380
F00380
F00380
F00380
F00380
700780
700780
700780
780700
7C0F00
3FFF00
1FFE00
0FF800
000000
00E000
00F200
007E00
003E00
ENDCHAR
STARTCHAR 0052
ENCODING 82
SWIDTH 607 0
DWIDTH 17 0
BBX 15 21 2 0
BITMAP
FFC0
FFF0
FFF8
E0FC
E03C
E03C
E01C
E01C
E03C
E03C
FFF8
FFF0
FFE0
E0E0
E0E0
E070
E070
E078
E038
E03C
E01E
ENDCHAR
STARTCHAR 0053
ENCODING 83
SWIDTH 571 0
DWIDTH 16 0
BBX 14 21 1 0
BITMAP
0FE0
3FF8
7FF8
7808
F000
F000
F000
F000
7000
7FE0
7FF8
3FF8
007C
003C
001C
001C
001C
003C
7FF8
7FF8
7FE0
ENDCHAR
STARTCHAR 0054
ENCODING 84
SWIDTH 571 0
DWIDTH 16 0
BBX 16 21 0 0
BITMAP
FFFF
FFFF
FFFF
03C0
03C0
03C0
03C0
03C0
03C0
03C0
03C0
03C0
03C0
03C0
03C0
03C0
03C0
03C0
03C0
03C0
03C0
ENDCHAR
STARTCHAR 0055
ENCODING 85
SWIDTH 678 0
DWIDTH 19 0
BBX 15 21 2 0
BITMAP
E00E
E00E
E00E
E00E
E00E
E00E
E00E
E00E
E00E
E00E
E00E
E00E
E00E
E00E
E00E
E00E
F01E
F83E
7FFC
7FFC
1FF0
ENDCHAR
STARTCHAR 0056
ENCODING 86
SWIDTH 678 0
DWIDTH 19 0
BBX 17 21 1 0
BITMAP
E00380
F00780
F00780
700700
780700
780F00
380E00
380E00
3C1E00
1C1C00
1C1C00
1E3C00
0E3C00
0E3800
0F7800
077800
077000
07F000
03F000
03E000
03E000
ENDCHAR
STARTCHAR 0057
ENCODING 87
SWIDTH 1000 0
DWIDTH 28 0
BBX 26 21 1 0
BITMAP
E01E03C0
F01E03C0
F01E03C0
F03E0380
703F0380
703F0780
783F0780
78730700
38738700
38738F00
3CE38F00
3CE1CE00
1CE1CE00
1CE1DE00
1FC0DE00
1FC0FC00
0FC0FC00
0F80FC00
0F807C00
0F807800
07007800
ENDCHAR
STARTCHAR 0058
ENCODING 88
SWIDTH 642 0
DWIDTH 18 0
BBX 17 21 1 0
BITMAP
F00780
F00F00
781E00
381E00
3C3C00
1E3800
0E7800
0F7000
07F000
07E000
03C000
03C000
07E000
0FF000
0E7000
1E7800
1C3C00
3C3C00
781E00
700F00
F00F00
ENDCHAR
STARTCHAR 0059
ENCODING 89
SWIDTH 607 0
DWIDTH 17 0
BBX 16 21 1 0
BITMAP
E00F
F00E
701E
781C
381C
383C
3C38
1C78
1E70
0EF0
0FE0
07E0
07C0
03C0
0380
0380
0380
0380
0380
0380
0380
ENDCHAR
STARTCHAR 005A
ENCODING 90
SWIDTH 571 0
DWIDTH 16 0
BBX 14 21 1 0
BITMAP
FFFC
FFFC
FFFC
003C
0078
00F0
00F0
01E0
03C0
03C0
0780
0F00
0F00
1E00
1E00
3C00
7800
7800
FFFC
FFFC
FFFC
ENDCHAR
STARTCHAR 005B
ENCODING 91
SWIDTH 321 0
DWIDTH 9 0
BBX 7 30 2 -6
BITMAP
0E
3E
7E
F8
F0
F0
F0
F0
F0
F0
F0
F0
F0
F0
F0
F0
F0
F0
F0
F0
F0
F0
F0
F0
F0
F0
F0
7E
7E
1E
ENDCHAR
STARTCHAR 005C
ENCODING 92
SWIDTH 428 0
DWIDTH 12 0
BBX 12 24 0 -2
BITMAP
F000
7000
7800
3800
3800
3C00
1C00
1C00
1E00
0E00
0E00
0F00
0700
0700
0780
0380
0380
03C0
01C0
01C0
01E0
00E0
00E0
00F0
ENDCHAR
STARTCHAR 005D
ENCODING 93
SWIDTH 321 0
DWIDTH 9 0
BBX 7 30 0 -6
BITMAP
F0
FC
FE
1E
0E
0E
0E
0E
0E
0E
0E
0E
0E
0E
0E
0E
0E
0E
0E
0E
0E
0E
0E
0E
0E
0E
1E
FE
FC
F8
ENDCHAR
STARTCHAR 005E
ENCODING 94
SWIDTH 392 0
DWIDTH 11 0
BBX 9 4 1 15
BITMAP
1C00
3E00
3600
E380
ENDCHAR
STARTCHAR 005F
ENCODING 95
SWIDTH 607 0
DWIDTH 17 0
BBX 17 3 0 -5
BITMAP
FFFF80
FFFF80
FFFF80
ENDCHAR
STARTCHAR 0060
ENCODING 96
SWIDTH 214 0
DWIDTH 6 0
BBX 6 4 0 18
BITMAP
E0
70
38
1C
ENDCHAR
STARTCHAR 0061
ENCODING 97
SWIDTH 535 0
DWIDTH 15 0
BBX 13 15 1 0
BITMAP
7FE0
7FF0
7FF0
0078
0078
0078
1FF8
7FF8
F078
F078
F078
F078
F1F8
7FF8
3E38
ENDCHAR
STARTCHAR 0062
ENCODING 98
SWIDTH 571 0
DWIDTH 16 0
BBX 13 21 2 0
BITMAP
E000
E000
E000
E000
E000
E000
E7E0
FFF0
FFF0
E078
E078
E078
E038
E038
E078
E078
E078
E078
FFF0
FFF0
E7C0
ENDCHAR
STARTCHAR 0063
ENCODING 99
SWIDTH 500 0
DWIDTH 14 0
BBX 12 15 1 0
BITMAP
1FF0
3FF0
7E00
7800
7000
F000
F000
F000
F000
F000
7000
7800
7E00
3FF0
1FF0
ENDCHAR
STARTCHAR 0064
ENCODING 100
SWIDTH 571 0
DWIDTH 16 0
BBX 14 21 1 0
BITMAP
003C
003C
003C
003C
003C
003C
1FFC
3FFC
7EFC
703C
F03C
F03C
F03C
F03C
F03C
F03C
F03C
783C
7FFC
3FFC
1F3C
ENDCHAR
STARTCHAR 0065
ENCODING 101
SWIDTH 535 0
DWIDTH 15 0
BBX 13 15 1 0
BITMAP
1FE0
3FF0
7CF0
7078
F038
F078
F0F8
FFF0
FFC0
F000
F000
7000
7F00
3FF0
1FF0
ENDCHAR
STARTCHAR 0066
ENCODING 102
SWIDTH 392 0
DWIDTH 11 0
BBX 10 22 1 0
BITMAP
0300
1FC0
3FC0
3C00
3800
3800
3800
FF80
FF80
FF80
3800
3800
3800
3800
3800
3800
3800
3800
3800
3800
3800
3800
ENDCHAR
STARTCHAR 0067
ENCODING 103
SWIDTH 571 0
DWIDTH 16 0
BBX 15 22 1 -7
BITMAP
1FFE
3FFE
7FF0
7038
7038
7038
7038
78F8
3FF8
3FE0
7000
6000
7FC0
7FF8
3FFC
701C
E01E
E01E
E01C
FFFC
FFF8
3FF0
ENDCHAR
STARTCHAR 0068
ENCODING 104
SWIDTH 607 0
DWIDTH 17 0
BBX 13 21 2 0
BITMAP
E000
E000
E000
E000
E000
E000
E7E0
FFF0
FFF0
F078
E078
E078
E078
E078
E078
E078
E078
E078
E078
E078
E078
ENDCHAR
STARTCHAR 0069
ENCODING 105
SWIDTH 250 0
DWIDTH 7 0
BBX 3 21 2 0
BITMAP
E0
E0
E0
E0
00
00
E0
E0
E0
E0
E0
E0
E0
E0
E0
E0
E0
E0
E0
E0
E0
ENDCHAR
STARTCHAR 006A
ENCODING 106
SWIDTH 250 0
DWIDTH 7 0
BBX 3 28 2 -7
BITMAP
E0
E0
E0
E0
00
00
E0
E0
E0
E0
E0
E0
E0
E0
E0
E0
E0
E0
E0
E0
E0
E0
E0
E0
E0
E0
E0
C0
ENDCHAR
STARTCHAR 006B
ENCODING 107
SWIDTH 535 0
DWIDTH 15 0
BBX 13 21 2 0
BITMAP
E000
E000
E000
E000
E000
E000
E070
E0E0
E1E0
E3C0
E380
FF80
FF00
FF00
FF80
E380
E3C0
E1E0
E0E0
E0F0
E078
ENDCHAR
STARTCHAR 006C
ENCODING 108
SWIDTH 321 0
DWIDTH 9 0
BBX 6 21 2 0
BITMAP
E0
E0
E0
E0
E0
E0
E0
E0
E0
E0
E0
E0
E0
E0
E0
E0
E0
F0
FC
7C
3C
ENDCHAR
STARTCHAR 006D
ENCODING 109
SWIDTH 928 0
DWIDTH 26 0
BBX 23 15 2 0
BITMAP
E7E1F8
FFF7FC
FFFFFC
F07C3C
E0781E
E0781E
E0781E
E0781E
E0781E
E0781E
E0781E
E0781E
E0781E
E0781E
E0781E
ENDCHAR
STARTCHAR 006E
ENCODING 110
SWIDTH 607 0
DWIDTH 17 0
BBX 13 15 2 0
BITMAP
E7E0
FFF0
FFF0
F078
E078
E078
E078
E078
E078
E078
E078
E078
E078
E078
E078
ENDCHAR
STARTCHAR 006F
ENCODING 111
SWIDTH 571 0
DWIDTH 16 0
BBX 14 15 1 0
BITMAP
1FE0
3FF0
7FF8
7838
F03C
F03C
F03C
F03C
F03C
F03C
703C
7838
7FF8
3FF0
1FE0
ENDCHAR
STARTCHAR 0070
ENCODING 112
SWIDTH 571 0
DWIDTH 16 0
BBX 13 22 2 -7
BITMAP
E7C0
FFE0
FFF0
E070
E078
E078
E078
E038
E078
E078
E078
E0F8
FFF0
FFF0
EFC0
E000
E000
E000
E000
E000
E000
E000
ENDCHAR
STARTCHAR 0071
ENCODING 113
SWIDTH 571 0
DWIDTH 16 0
BBX 14 22 1 -7
BITMAP
1FFC
3FFC
7C3C
783C
F03C
F03C
F03C
F03C
F03C
F03C
F03C
783C
7FFC
3FFC
1F3C
003C
003C
003C
003C
003C
003C
003C
ENDCHAR
STARTCHAR 0072
ENCODING 114
SWIDTH 428 0
DWIDTH 12 0
BBX 9 15 2 0
BITMAP
E780
EF80
FF80
FC00
F000
E000
E000
E000
E000
E000
E000
E000
E000
E000
E000
ENDCHAR
STARTCHAR 0073
ENCODING 115
SWIDTH 500 0
DWIDTH 14 0
BBX 12 15 1 0
BITMAP
3FE0
7FE0
F800
E000
E000
E000
FFC0
7FE0
3FF0
0070
0070
0070
01F0
FFE0
FFC0
ENDCHAR
STARTCHAR 0074
ENCODING 116
SWIDTH 392 0
DWIDTH 11 0
BBX 10 19 0 0
BITMAP
1C00
1C00
1C00
1C00
7FC0
FFC0
FFC0
1C00
1C00
1C00
1C00
1C00
1C00
1C00
1C00
1E00
1FC0
1FC0
07C0
ENDCHAR
STARTCHAR 0075
ENCODING 117
SWIDTH 607 0
DWIDTH 17 0
BBX 13 15 2 0
BITMAP
E078
E078
E078
E078
E078
E078
E078
E078
E078
E078
E078
F0F8
FFF8
FFF8
7E38
ENDCHAR
STARTCHAR 0076
ENCODING 118
SWIDTH 571 0
DWIDTH 16 0
BBX 15 15 0 0
BITMAP
F01E
701E
781C
383C
3838
3C38
1C78
1C70
1E70
0EF0
0EE0
0FE0
07E0
07C0
07C0
ENDCHAR
STARTCHAR 0077
ENCODING 119
SWIDTH 821 0
DWIDTH 23 0
BBX 22 15 0 0
BITMAP
F0381C
70381C
787C3C
787C38
387C38
386C38
3CEE78
1CEE70
1CC670
1DC770
1DC7F0
0F87E0
0F83E0
0F83E0
0F83C0
ENDCHAR
STARTCHAR 0078
ENCODING 120
SWIDTH 535 0
DWIDTH 15 0
BBX 14 15 0 0
BITMAP
F01C
7838
3C78
1C70
0EE0
0FE0
07C0
0780
07C0
0FE0
1EE0
1CF0
3C78
7838
F01C
ENDCHAR
STARTCHAR 0079
ENCODING 121
SWIDTH 571 0
DWIDTH 16 0
BBX 15 22 0 -7
BITMAP
F00E
701E
781E
781C
381C
383C
3C3C
3C38
1C38
1C78
1E78
0E70
0FF0
07F0
03F0
00E0
00E0
01E0
01E0
01C0
01C0
0380
ENDCHAR
STARTCHAR 007A
ENCODING 122
SWIDTH 500 0
DWIDTH 14 0
BBX 12 15 1 0
BITMAP
FFF0
FFF0
FFF0
01E0
01C0
03C0
0780
0F00
1E00
1C00
3C00
7800
FFF0
FFF0
FFF0
ENDCHAR
STARTCHAR 007B
ENCODING 123
SWIDTH 321 0
DWIDTH 9 0
BBX 8 30 0 -6
BITMAP
01
0F
1F
1E
1C
1C
1C
1C
1C
1C
1C
3C
3C
FC
F0
F8
3C
3C
3C
3C
3C
3C
3C
3C
3C
3C
1C
1F
0F
07
ENDCHAR
STARTCHAR 007C
ENCODING 124
SWIDTH 250 0
DWIDTH 7 0
BBX 3 24 2 -2
BITMAP
E0
E0
E0
E0
E0
E0
E0
E0
E0
E0
E0
E0
E0
E0
E0
E0
E0
E0
E0
E0
E0
E0
E0
E0
ENDCHAR
STARTCHAR 007D
ENCODING 125
SWIDTH 321 0
DWIDTH 9 0
BBX 8 30 0 -6
BITMAP
80
F8
F8
3C
1C
1C
1C
1C
1C
1C
1C
1C
1E
1F
07
0F
1E
1C
1C
1C
1C
1C
1C
1C
1C
1C
3C
FC
F8
E0
ENDCHAR
STARTCHAR 007E
ENCODING 126
SWIDTH 428 0
DWIDTH 12 0
BBX 10 3 1 15
BITMAP
7CC0
FFC0
8700
ENDCHAR
STARTCHAR 00A1
ENCODING 161
SWIDTH 285 0
DWIDTH 8 0
BBX 4 21 2 -6
BITMAP
E0
E0
E0
E0
00
00
60
E0
E0
E0
E0
E0
E0
E0
E0
E0
E0
E0
E0
F0
F0
ENDCHAR
STARTCHAR 00A2
ENCODING 162
SWIDTH 500 0
DWIDTH 14 0
BBX 12 21 1 -3
BITMAP
0600
0600
0600
1FC0
7FE0
7FE0
F000
F000
F000
E000
E000
E000
F000
F000
F000
7FF0
7FF0
1FE0
0600
0600
0600
ENDCHAR
STARTCHAR 00A3
ENCODING 163
SWIDTH 607 0
DWIDTH 17 0
BBX 14 21 2 0
BITMAP
01F8
0FF8
1FF8
1F00
1C00
3C00
3C00
3C00
3C00
3C00
FFE0
FFE0
3C00
3C00
3C00
3C00
3C00
3C00
FFFC
FFFC
FFFC
ENDCHAR
STARTCHAR 00A4
ENCODING 164
SWIDTH 607 0
DWIDTH 17 0
BBX 13 14 2 3
BITMAP
4010
C018
E738
7FF0
38E0
3060
3060
3060
3060
38E0
3FE0
7770
E038
4010
ENDCHAR
STARTCHAR 00A5
ENCODING 165
SWIDTH 607 0
DWIDTH 17 0
BBX 16 21 0 0
BITMAP
F007
700F
780E
381E
3C1C
3C1C
1C3C
1E38
0E78
0F70
07F0
07E0
3FFE
3FFE
03C0
03C0
3FFE
03C0
03C0
03C0
03C0
ENDCHAR
STARTCHAR 00A6
ENCODING 166
SWIDTH 250 0
DWIDTH 7 0
BBX 3 24 2 -2
BITMAP
E0
E0
E0
E0
E0
E0
E0
E0
E0
E0
00
00
00
00
00
E0
E0
E0
E0
E0
E0
E0
E0
E0
ENDCHAR
STARTCHAR 00A7
ENCODING 167
SWIDTH 535 0
DWIDTH 15 0
BBX 13 22 1 0
BITMAP
1FF0
7FF0
7FF0
7000
7000
7000
7800
7FF0
3FF8
7078
F038
F038
F038
FFF0
7FF0
3FF8
0078
0078
0078
7FF8
7FF0
7FE0
ENDCHAR
STARTCHAR 00A8
ENCODING 168
SWIDTH 392 0
DWIDTH 11 0
BBX 8 4 2 18
BITMAP
C7
C7
C7
C7
ENDCHAR
STARTCHAR 00A9
ENCODING 169
SWIDTH 821 0
DWIDTH 23 0
BBX 21 21 1 0
BITMAP
00FC00
0FFFC0
1E01E0
380060
700030
61FE30
63FE30
630030
E30018
C60018
C60018
C60018
C70018
630030
638030
63FE30
70FC30
300060
1800E0
1FFFC0
07FF00
ENDCHAR
STARTCHAR 00AA
ENCODING 170
SWIDTH 392 0
DWIDTH 11 0
BBX 10 14 1 7
BITMAP
FF00
FF80
0380
0380
0380
FF80
E380
C380
E380
FF80
7980
0000
FFC0
FFC0
ENDCHAR
STARTCHAR 00AB
ENCODING 171
SWIDTH 607 0
DWIDTH 17 0
BBX 15 12 1 2
BITMAP
0204
070E
0E1C
1C38
3870
70E0
F1E0
3870
1C38
0E1C
070E
0204
ENDCHAR
STARTCHAR 00AC
ENCODING 172
SWIDTH 607 0
DWIDTH 17 0
BBX 13 10 2 5
BITMAP
FFF8
FFF8
FFF8
0038
0038
0038
0038
0038
0038
0038
ENDCHAR
STARTCHAR 00AD
ENCODING 173
SWIDTH 357 0
DWIDTH 10 0
BBX 8 3 1 7
BITMAP
FF
FF
FF
ENDCHAR
STARTCHAR 00AE
ENCODING 174
SWIDTH 821 0
DWIDTH 23 0
BBX 21 21 1 0
BITMAP
00FC00
0FFFC0
1E01E0
380060
700030
63FC30
63FE30
630630
E30618
C30618
C3FE18
C3FC18
C31818
630830
630C30
630630
730630
300060
1800E0
1FFFC0
07FF00
ENDCHAR
STARTCHAR 00AF
ENCODING 175
SWIDTH 357 0
DWIDTH 10 0
BBX 8 2 1 18
BITMAP
FF
FF
ENDCHAR
STARTCHAR 00B0
ENCODING 176
SWIDTH 321 0
DWIDTH 9 0
BBX 7 7 1 14
BITMAP
7C
C6
82
82
82
C6
7C
ENDCHAR
STARTCHAR 00B1
ENCODING 177
SWIDTH 607 0
DWIDTH 17 0
BBX 13 17 2 3
BITMAP
0700
0700
0700
0700
0700
FFF8
FFF8
0700
0700
0700
0700
0700
0000
0000
0000
FFF8
FFF8
ENDCHAR
STARTCHAR 00B2
ENCODING 178
SWIDTH 464 0
DWIDTH 13 0
BBX 11 15 1 8
BITMAP
7F00
7FC0
7FC0
01C0
01C0
01C0
03C0
0380
0700
0E00
1C00
3800
7FE0
FFE0
FFE0
ENDCHAR
STARTCHAR 00B3
ENCODING 179
SWIDTH 464 0
DWIDTH 13 0
BBX 10 15 1 8
BITMAP
FF00
FF80
FFC0
01C0
01C0
01C0
7FC0
7F00
7FC0
01C0
01C0
01C0
FFC0
FFC0
FF80
ENDCHAR
STARTCHAR 00B4
ENCODING 180
SWIDTH 214 0
DWIDTH 6 0
BBX 6 4 0 18
BITMAP
1C
38
30
E0
ENDCHAR
STARTCHAR 00B5
ENCODING 181
SWIDTH 607 0
DWIDTH 17 0
BBX 13 23 2 -8
BITMAP
E078
E078
E078
E078
E078
E078
E078
E078
E078
E078
E078
F0F8
FFF8
FFF8
FF38
E000
E000
E000
E000
E000
E000
E000
E000
ENDCHAR
STARTCHAR 00B6
ENCODING 182
SWIDTH 571 0
DWIDTH 16 0
BBX 15 29 1 -8
BITMAP
1FFE
7FFE
FFFE
C398
C398
C398
C398
C398
C398
E398
FF98
7F98
0398
0398
0398
0398
0398
0398
0398
0398
0398
0380
0380
0380
0380
0380
0380
0380
0380
ENDCHAR
STARTCHAR 00B7
ENCODING 183
SWIDTH 250 0
DWIDTH 7 0
BBX 3 3 2 9
BITMAP
E0
E0
E0
ENDCHAR
STARTCHAR 00B8
ENCODING 184
SWIDTH 250 0
DWIDTH 7 0
BBX 4 5 1 -5
BITMAP
70
40
30
30
F0
ENDCHAR
STARTCHAR 00B9
ENCODING 185
SWIDTH 464 0
DWIDTH 13 0
BBX 10 15 2 8
BITMAP
3C00
FC00
FC00
1C00
1C00
1C00
1C00
1C00
1C00
1C00
1C00
1C00
FFC0
FFC0
FFC0
ENDCHAR
STARTCHAR 00BA
ENCODING 186
SWIDTH 428 0
DWIDTH 12 0
BBX 10 14 1 7
BITMAP
3F00
7F80
F3C0
E1C0
E1C0
E1C0
E1C0
E1C0
F3C0
7F80
3F00
0000
FFC0
FFC0
ENDCHAR
STARTCHAR 00BB
ENCODING 187
SWIDTH 607 0
DWIDTH 17 0
BBX 15 12 1 2
BITMAP
4080
E1C0
70E0
3870
1C38
0E1C
0F1E
1E3C
3C78
78F0
F1E0
60C0
ENDCHAR
STARTCHAR 00BC
ENCODING 188
SWIDTH 1285 0
DWIDTH 36 0
BBX 33 23 2 0
BITMAP
3C00000000
FC000C0000
FC001C0000
1C00180000
1C00380000
1C00300000
1C00700000
1C00600000
1C00E07800
1C00C07000
1C01C07000
1C0180E000
FFC380E000
FFC301CE00
FFC701CE00
0006038E00
0006038E00
000E07FF80
000C07FF80
001C07FF00
0018000E00
0038000E00
0070000E00
ENDCHAR
STARTCHAR 00BD
ENCODING 189
SWIDTH 1285 0
DWIDTH 36 0
BBX 32 23 2 0
BITMAP
3C000000
FC000C00
FC001C00
1C001800
1C003800
1C003000
1C007000
1C006000
1C00E3FC
1C00C3FE
1C01C3FE
1C01800E
FFC3800E
FFC3000E
FFC7000E
0006001C
0006003C
000E0078
000C00F0
001C01E0
001803FF
003803FF
007003FF
ENDCHAR
STARTCHAR 00BE
ENCODING 190
SWIDTH 1285 0
DWIDTH 36 0
BBX 34 23 1 0
BITMAP
7F80000000
7FC0060000
7FC00E0000
01C00C0000
01C01C0000
01C0180000
3FC0380000
3F80300000
3FC0703C00
01C0603800
01E0E03800
01E0C07000
FFC1C07000
FFC180E700
FF8380E700
000301C700
000301C700
000703FFC0
000603FFC0
000E03FF80
000C000700
001C000700
0038000700
ENDCHAR
STARTCHAR 00BF
ENCODING 191
SWIDTH 535 0
DWIDTH 15 0
BBX 12 21 2 -6
BITMAP
0380
0380
0380
0380
0000
0000
0300
0300
1F00
7F00
FF00
F000
E000
E000
E000
E000
F000
FDF0
7FF0
3FE0
0E00
ENDCHAR
STARTCHAR 00C0
ENCODING 192
SWIDTH 678 0
DWIDTH 19 0
BBX 17 26 1 0
BITMAP
060000
070000
038000
018000
004000
03E000
03E000
03E000
077000
077000
077000
0F7800
0E3800
0E3800
1E3C00
1C1C00
1C1C00
3C1E00
3FFE00
3FFE00
7FFF00
780F00
700700
F00780
F00780
E00380
ENDCHAR
STARTCHAR 00C1
ENCODING 193
SWIDTH 678 0
DWIDTH 19 0
BBX 17 26 1 0
BITMAP
003800
007000
006000
00C000
000000
03E000
03E000
03E000
077000
077000
077000
0F7800
0E3800
0E3800
1E3C00
1C1C00
1C1C00
3C1E00
3FFE00
3FFE00
7FFF00
780F00
700700
F00780
F00780
E00380
ENDCHAR
STARTCHAR 00C2
ENCODING 194
SWIDTH 678 0
DWIDTH 19 0
BBX 17 26 1 0
BITMAP
01C000
01E000
036000
063000
080800
03E000
03E000
03E000
077000
077000
077000
0F7800
0E3800
0E3800
1E3C00
1C1C00
1C1C00
3C1E00
3FFE00
3FFE00
7FFF00
780F00
700700
F00780
F00780
E00380
ENDCHAR
STARTCHAR 00C3
ENCODING 195
SWIDTH 678 0
DWIDTH 19 0
BBX 17 25 1 0
BITMAP
0F8C00
0FF800
18F800
000000
03E000
03E000
03E000
077000
077000
077000
0F7800
0E3800
0E3800
1E3C00
1C1C00
1C1C00
3C1E00
3FFE00
3FFE00
7FFF00
780F00
700700
F00780
F00780
E00380
ENDCHAR
STARTCHAR 00C4
ENCODING 196
SWIDTH 678 0
DWIDTH 19 0
BBX 17 26 1 0
BITMAP
0E3800
0E3800
0E3800
0C3000
000000
03E000
03E000
03E000
077000
077000
077000
0F7800
0E3800
0E3800
1E3C00
1C1C00
1C1C00
3C1E00
3FFE00
3FFE00
7FFF00
780F00
700700
F00780
F00780
E00380
ENDCHAR
STARTCHAR 00C5
ENCODING 197
SWIDTH 678 0
DWIDTH 19 0
BBX 17 28 1 0
BITMAP
01C000
03E000
063000
063000
063000
03E000
008000
03E000
03E000
03E000
077000
077000
077000
0F7800
0E3800
0E3800
1E3C00
1C1C00
1C1C00
3C1E00
3FFE00
3FFE00
7FFF00
780F00
700700
F00780
F00780
E00380
ENDCHAR
STARTCHAR 00C6
ENCODING 198
SWIDTH 964 0
DWIDTH 27 0
BBX 25 21 1 0
BITMAP
0003FC00
000FFF80
003FFF80
003FFF80
007E0000
00FE0000
00EE0000
01EE0000
01CE0000
03CFFF00
038FFF00
078FFF00
0F0E0000
0FFE0000
1FFE0000
1FFE0000
3C0E0000
380F0000
780FFF80
F007FF80
E003FF80
ENDCHAR
STARTCHAR 00C7
ENCODING 199
SWIDTH 571 0
DWIDTH 16 0
BBX 14 26 1 -5
BITMAP
07F0
1FFC
3FFC
3E04
7800
7000
7000
7000
F000
F000
F000
F000
F000
7000
7000
7000
7800
7C00
3FFC
1FFC
0FFC
0080
0100
00C0
00C0
03C0
ENDCHAR
STARTCHAR 00C8
ENCODING 200
SWIDTH 607 0
DWIDTH 17 0
BBX 13 26 2 0
BITMAP
1C00
0C00
0600
0700
0000
1FE0
7FF8
FFF8
FFF8
F000
E000
E000
E000
E000
FFF0
FFF0
FFF0
E000
E000
E000
E000
E000
F000
FFF8
7FF8
3FF8
ENDCHAR
STARTCHAR 00C9
ENCODING 201
SWIDTH 607 0
DWIDTH 17 0
BBX 13 26 2 0
BITMAP
00E0
00C0
0180
0380
0000
1FE0
7FF8
FFF8
FFF8
F000
E000
E000
E000
E000
FFF0
FFF0
FFF0
E000
E000
E000
E000
E000
F000
FFF8
7FF8
3FF8
ENDCHAR
STARTCHAR 00CA
ENCODING 202
SWIDTH 607 0
DWIDTH 17 0
BBX 13 26 2 0
BITMAP
0300
0780
0DC0
18C0
2020
1FE0
7FF8
FFF8
FFF8
F000
E000
E000
E000
E000
FFF0
FFF0
FFF0
E000
E000
E000
E000
E000
F000
FFF8
7FF8
3FF8
ENDCHAR
STARTCHAR 00CB
ENCODING 203
SWIDTH 607 0
DWIDTH 17 0
BBX 13 26 2 0
BITMAP
38E0
38E0
38E0
1040
0000
1FE0
7FF8
FFF8
FFF8
F000
E000
E000
E000
E000
FFF0
FFF0
FFF0
E000
E000
E000
E000
E000
F000
FFF8
7FF8
3FF8
ENDCHAR
STARTCHAR 00CC
ENCODING 204
SWIDTH 250 0
DWIDTH 7 0
BBX 5 26 0 0
BITMAP
E0
60
70
38
00
38
38
38
38
38
38
38
38
38
38
38
38
38
38
38
38
38
38
38
38
38
ENDCHAR
STARTCHAR 00CD
ENCODING 205
SWIDTH 250 0
DWIDTH 7 0
BBX 6 26 2 0
BITMAP
1C
18
30
70
00
E0
E0
E0
E0
E0
E0
E0
E0
E0
E0
E0
E0
E0
E0
E0
E0
E0
E0
E0
E0
E0
ENDCHAR
STARTCHAR 00CE
ENCODING 206
SWIDTH 250 0
DWIDTH 7 0
BBX 9 26 -1 0
BITMAP
0C00
1E00
3600
6300
8080
1C00
1C00
1C00
1C00
1C00
1C00
1C00
1C00
1C00
1C00
1C00
1C00
1C00
1C00
1C00
1C00
1C00
1C00
1C00
1C00
1C00
ENDCHAR
STARTCHAR 00CF
ENCODING 207
SWIDTH 250 0
DWIDTH 7 0
BBX 9 26 -1 0
BITMAP
E380
E380
E380
C100
0000
1C00
1C00
1C00
1C00
1C00
1C00
1C00
1C00
1C00
1C00
1C00
1C00
1C00
1C00
1C00
1C00
1C00
1C00
1C00
1C00
1C00
ENDCHAR
STARTCHAR 00D0
ENCODING 208
SWIDTH 678 0
DWIDTH 19 0
BBX 18 21 0 0
BITMAP
3FF000
3FFE00
3FFF00
383F00
380780
380780
380380
380380
380380
FF83C0
FF83C0
FF83C0
380380
380380
380380
380780
380780
380F00
3FFF00
3FFE00
3FF800
ENDCHAR
STARTCHAR 00D1
ENCODING 209
SWIDTH 714 0
DWIDTH 20 0
BBX 16 25 2 0
BITMAP
1F18
1FF0
10F0
2000
E00F
F00F
F00F
F80F
FC0F
FC0F
FE0F
FF0F
F70F
F38F
F38F
F1CF
F0EF
F0EF
F07F
F03F
F03F
F01F
F01F
F00F
F007
ENDCHAR
STARTCHAR 00D2
ENCODING 210
SWIDTH 678 0
DWIDTH 19 0
BBX 17 26 1 0
BITMAP
070000
030000
018000
01C000
000000
03F000
1FFC00
3FFE00
3E1F00
780F00
780780
700780
700780
F00380
F00380
F00380
F00380
F00380
700780
700780
700780
780700
7C0F00
3FFF00
1FFE00
0FF800
ENDCHAR
STARTCHAR 00D3
ENCODING 211
SWIDTH 678 0
DWIDTH 19 0
BBX 17 26 1 0
BITMAP
003800
003000
006000
00E000
000000
03F000
1FFC00
3FFE00
3E1F00
780F00
780780
700780
700780
F00380
F00380
F00380
F00380
F00380
700780
700780
700780
780700
7C0F00
3FFF00
1FFE00
0FF800
ENDCHAR
STARTCHAR 00D4
ENCODING 212
SWIDTH 678 0
DWIDTH 19 0
BBX 17 26 1 0
BITMAP
00C000
01E000
037000
063000
080800
03F000
1FFC00
3FFE00
3E1F00
780F00
780780
700780
700780
F00380
F00380
F00380
F00380
F00380
700780
700780
700780
780700
7C0F00
3FFF00
1FFE00
0FF800
ENDCHAR
STARTCHAR 00D5
ENCODING 213
SWIDTH 678 0
DWIDTH 19 0
BBX 17 25 1 0
BITMAP
078C00
0FF800
0C7800
000000
03F000
1FFC00
3FFE00
3E1F00
780F00
780780
700780
700780
F00380
F00380
F00380
F00380
F00380
700780
700780
700780
780700
7C0F00
3FFF00
1FFE00
0FF800
ENDCHAR
STARTCHAR 00D6
ENCODING 214
SWIDTH 678 0
DWIDTH 19 0
BBX 17 26 1 0
BITMAP
0E3800
0E3800
0E3800
041000
000000
03F000
1FFC00
3FFE00
3E1F00
780F00
780780
700780
700780
F00380
F00380
F00380
F00380
F00380
700780
700780
700780
780700
7C0F00
3FFF00
1FFE00
0FF800
ENDCHAR
STARTCHAR 00D7
ENCODING 215
SWIDTH 607 0
DWIDTH 17 0
BBX 11 10 3 5
BITMAP
60C0
F1E0
7BC0
3F80
1100
1100
3B80
7FC0
F1E0
60C0
ENDCHAR
STARTCHAR 00D8
ENCODING 216
SWIDTH 678 0
DWIDTH 19 0
BBX 17 21 1 0
BITMAP
03F380
1FFF00
3FFE00
3E1F00
780F00
781F80
703F80
703780
F06380
F0E380
F0C380
F18380
F38380
730780
760780
7E0780
7C0700
7C0F00
3FFF00
3FFE00
6FF800
ENDCHAR
STARTCHAR 00D9
ENCODING 217
SWIDTH 678 0
DWIDTH 19 0
BBX 15 26 2 0
BITMAP
1C00
0E00
0700
0300
0080
E00E
E00E
E00E
E00E
E00E
E00E
E00E
E00E
E00E
E00E
E00E
E00E
E00E
E00E
E00E
E00E
F01E
F83E
7FFC
7FFC
1FF0
ENDCHAR
STARTCHAR 00DA
ENCODING 218
SWIDTH 678 0
DWIDTH 19 0
BBX 15 26 2 0
BITMAP
0070
00E0
00C0
0180
0200
E00E
E00E
E00E
E00E
E00E
E00E
E00E
E00E
E00E
E00E
E00E
E00E
E00E
E00E
E00E
E00E
F01E
F83E
7FFC
7FFC
1FF0
ENDCHAR
STARTCHAR 00DB
ENCODING 219
SWIDTH 678 0
DWIDTH 19 0
BBX 15 26 2 0
BITMAP
0380
0780
06C0
0C60
1010
E00E
E00E
E00E
E00E
E00E
E00E
E00E
E00E
E00E
E00E
E00E
E00E
E00E
E00E
E00E
E00E
F01E
F83E
7FFC
7FFC
1FF0
ENDCHAR
STARTCHAR 00DC
ENCODING 220
SWIDTH 678 0
DWIDTH 19 0
BBX 15 26 2 0
BITMAP
1870
1870
1870
1860
0000
E00E
E00E
E00E
E00E
E00E
E00E
E00E
E00E
E00E
E00E
E00E
E00E
E00E
E00E
E00E
E00E
F01E
F83E
7FFC
7FFC
1FF0
ENDCHAR
STARTCHAR 00DD
ENCODING 221
SWIDTH 607 0
DWIDTH 17 0
BBX 16 26 1 0
BITMAP
0070
0060
00E0
01C0
0000
E00F
F00E
701E
781C
381C
383C
3C38
1C78
1E70
0EF0
0FE0
07E0
07C0
03C0
0380
0380
0380
0380
0380
0380
0380
ENDCHAR
STARTCHAR 00DE
ENCODING 222
SWIDTH 571 0
DWIDTH 16 0
BBX 13 21 2 0
BITMAP
E000
E000
E000
E000
FFE0
FFF0
FFF0
E078
E078
E038
E038
E038
E078
E0F8
FFF0
FFF0
FFC0
E000
E000
E000
E000
ENDCHAR
STARTCHAR 00DF
ENCODING 223
SWIDTH 607 0
DWIDTH 17 0
BBX 15 21 1 0
BITMAP
1FF0
3FF8
7C78
783C
701C
F03C
F038
F078
F0F0
F0E0
F1E0
F1E0
F1F0
F0FC
F07E
F01E
F00E
F00E
F37E
F3FC
F3F8
ENDCHAR
STARTCHAR 00E0
ENCODING 224
SWIDTH 535 0
DWIDTH 15 0
BBX 13 22 1 0
BITMAP
1C00
0C00
0600
0700
0000
0000
0000
7FE0
7FF0
7FF0
0078
0078
0078
1FF8
7FF8
F078
F078
F078
F078
F1F8
7FF8
3E38
ENDCHAR
STARTCHAR 00E1
ENCODING 225
SWIDTH 535 0
DWIDTH 15 0
BBX 13 22 1 0
BITMAP
00E0
01C0
0180
0300
0400
0000
0000
7FE0
7FF0
7FF0
0078
0078
0078
1FF8
7FF8
F078
F078
F078
F078
F1F8
7FF8
3E38
ENDCHAR
STARTCHAR 00E2
ENCODING 226
SWIDTH 535 0
DWIDTH 15 0
BBX 13 22 1 0
BITMAP
0700
0780
0D80
18C0
2020
0000
0000
7FE0
7FF0
7FF0
0078
0078
0078
1FF8
7FF8
F078
F078
F078
F078
F1F8
7FF8
3E38
ENDCHAR
STARTCHAR 00E3
ENCODING 227
SWIDTH 535 0
DWIDTH 15 0
BBX 13 21 1 0
BITMAP
1E30
3FE0
31E0
0000
0000
0000
7FE0
7FF0
7FF0
0078
0078
0078
1FF8
7FF8
F078
F078
F078
F078
F1F8
7FF8
3E38
ENDCHAR
STARTCHAR 00E4
ENCODING 228
SWIDTH 535 0
DWIDTH 15 0
BBX 13 22 1 0
BITMAP
18C0
38E0
38E0
38E0
0000
0000
0000
7FE0
7FF0
7FF0
0078
0078
0078
1FF8
7FF8
F078
F078
F078
F078
F1F8
7FF8
3E38
ENDCHAR
STARTCHAR 00E5
ENCODING 229
SWIDTH 535 0
DWIDTH 15 0
BBX 13 23 1 0
BITMAP
0700
0F80
18C0
18C0
18C0
0F80
0200
0000
7FE0
7FF0
7FF0
0078
0078
0078
1FF8
7FF8
F078
F078
F078
F078
F1F8
7FF8
3E38
ENDCHAR
STARTCHAR 00E6
ENCODING 230
SWIDTH 857 0
DWIDTH 24 0
BBX 22 15 1 0
BITMAP
7FC7F0
7FFFF8
7FFEF8
00783C
00781C
00783C
1FFFF8
7FFFF8
F87FC0
F07800
F07800
F07C00
F9FF80
7F9FF8
3E0FF8
ENDCHAR
STARTCHAR 00E7
ENCODING 231
SWIDTH 500 0
DWIDTH 14 0
BBX 12 20 1 -5
BITMAP
1FF0
3FF0
7E00
7800
7000
F000
F000
F000
F000
F000
7000
7800
7E00
3FF0
1FF0
0200
0600
0300
0380
0F00
ENDCHAR
STARTCHAR 00E8
ENCODING 232
SWIDTH 535 0
DWIDTH 15 0
BBX 13 22 1 0
BITMAP
1C00
0C00
0600
0700
0000
0000
0000
1FE0
3FF0
7CF0
7078
F038
F078
F0F8
FFF0
FFC0
F000
F000
7000
7F00
3FF0
1FF0
ENDCHAR
STARTCHAR 00E9
ENCODING 233
SWIDTH 535 0
DWIDTH 15 0
BBX 13 22 1 0
BITMAP
00E0
01C0
0180
0300
0400
0000
0000
1FE0
3FF0
7CF0
7078
F038
F078
F0F8
FFF0
FFC0
F000
F000
7000
7F00
3FF0
1FF0
ENDCHAR
STARTCHAR 00EA
ENCODING 234
SWIDTH 535 0
DWIDTH 15 0
BBX 13 22 1 0
BITMAP
0700
0780
0D80
18C0
2020
0000
0000
1FE0
3FF0
7CF0
7078
F038
F078
F0F8
FFF0
FFC0
F000
F000
7000
7F00
3FF0
1FF0
ENDCHAR
STARTCHAR 00EB
ENCODING 235
SWIDTH 535 0
DWIDTH 15 0
BBX 13 22 1 0
BITMAP
18C0
38E0
38E0
38E0
0000
0000
0000
1FE0
3FF0
7CF0
7078
F038
F078
F0F8
FFF0
FFC0
F000
F000
7000
7F00
3FF0
1FF0
ENDCHAR
STARTCHAR 00EC
ENCODING 236
SWIDTH 250 0
DWIDTH 7 0
BBX 5 22 0 0
BITMAP
E0
60
30
38
00
00
00
38
38
38
38
38
38
38
38
38
38
38
38
38
38
38
ENDCHAR
STARTCHAR 00ED
ENCODING 237
SWIDTH 250 0
DWIDTH 7 0
BBX 6 22 2 0
BITMAP
1C
38
30
60
80
00
00
E0
E0
E0
E0
E0
E0
E0
E0
E0
E0
E0
E0
E0
E0
E0
ENDCHAR
STARTCHAR 00EE
ENCODING 238
SWIDTH 250 0
DWIDTH 7 0
BBX 9 22 -1 0
BITMAP
1C00
1E00
3600
6300
8080
0000
0000
1C00
1C00
1C00
1C00
1C00
1C00
1C00
1C00
1C00
1C00
1C00
1C00
1C00
1C00
1C00
ENDCHAR
STARTCHAR 00EF
ENCODING 239
SWIDTH 250 0
DWIDTH 7 0
BBX 8 22 -1 0
BITMAP
63
E3
E3
E3
00
00
00
1C
1C
1C
1C
1C
1C
1C
1C
1C
1C
1C
1C
1C
1C
1C
ENDCHAR
STARTCHAR 00F0
ENCODING 240
SWIDTH 571 0
DWIDTH 16 0
BBX 14 21 1 0
BITMAP
1F08
1FFC
01E0
07F0
1870
0038
0FB8
3FF8
7FF8
787C
703C
F03C
F03C
F03C
F03C
F03C
F03C
7838
7FF8
3FF0
1FE0
ENDCHAR
STARTCHAR 00F1
ENCODING 241
SWIDTH 607 0
DWIDTH 17 0
BBX 13 21 2 0
BITMAP
3E30
3FE0
61E0
0000
0000
0000
E7E0
FFF0
FFF0
F078
E078
E078
E078
E078
E078
E078
E078
E078
E078
E078
E078
ENDCHAR
STARTCHAR 00F2
ENCODING 242
SWIDTH 571 0
DWIDTH 16 0
BBX 14 22 1 0
BITMAP
1C00
0E00
0600
0300
0080
0000
0000
1FE0
3FF0
7FF8
7838
F03C
F03C
F03C
F03C
F03C
F03C
703C
7838
7FF8
3FF0
1FE0
ENDCHAR
STARTCHAR 00F3
ENCODING 243
SWIDTH 571 0
DWIDTH 16 0
BBX 14 22 1 0
BITMAP
00E0
00C0
01C0
0380
0000
0000
0000
1FE0
3FF0
7FF8
7838
F03C
F03C
F03C
F03C
F03C
F03C
703C
7838
7FF8
3FF0
1FE0
ENDCHAR
STARTCHAR 00F4
ENCODING 244
SWIDTH 571 0
DWIDTH 16 0
BBX 14 22 1 0
BITMAP
0300
0780
0EC0
1CE0
0000
0000
0000
1FE0
3FF0
7FF8
7838
F03C
F03C
F03C
F03C
F03C
F03C
703C
7838
7FF8
3FF0
1FE0
ENDCHAR
STARTCHAR 00F5
ENCODING 245
SWIDTH 571 0
DWIDTH 16 0
BBX 14 21 1 0
BITMAP
1E30
1FF0
31E0
0000
0000
0000
1FE0
3FF0
7FF8
7838
F03C
F03C
F03C
F03C
F03C
F03C
703C
7838
7FF8
3FF0
1FE0
ENDCHAR
STARTCHAR 00F6
ENCODING 246
SWIDTH 571 0
DWIDTH 16 0
BBX 14 22 1 0
BITMAP
1860
1CE0
1CE0
1CE0
0000
0000
0000
1FE0
3FF0
7FF8
7838
F03C
F03C
F03C
F03C
F03C
F03C
703C
7838
7FF8
3FF0
1FE0
ENDCHAR
STARTCHAR 00F7
ENCODING 247
SWIDTH 607 0
DWIDTH 17 0
BBX 13 14 2 3
BITMAP
0700
0700
0700
0000
0000
0000
FFF8
FFF8
0000
0000
0000
0700
0700
0700
ENDCHAR
STARTCHAR 00F8
ENCODING 248
SWIDTH 571 0
DWIDTH 16 0
BBX 14 15 1 0
BITMAP
1FEC
3FF8
7FF8
7838
F07C
F0FC
F1BC
F33C
F63C
F43C
783C
7838
7FF8
7FF0
DFE0
ENDCHAR
STARTCHAR 00F9
ENCODING 249
SWIDTH 607 0
DWIDTH 17 0
BBX 13 22 2 0
BITMAP
3800
1C00
0E00
0600
0100
0000
0000
E078
E078
E078
E078
E078
E078
E078
E078
E078
E078
E078
F0F8
FFF8
FFF8
7E38
ENDCHAR
STARTCHAR 00FA
ENCODING 250
SWIDTH 607 0
DWIDTH 17 0
BBX 13 22 2 0
BITMAP
00C0
01C0
0380
0700
0000
0000
0000
E078
E078
E078
E078
E078
E078
E078
E078
E078
E078
E078
F0F8
FFF8
FFF8
7E38
ENDCHAR
STARTCHAR 00FB
ENCODING 251
SWIDTH 607 0
DWIDTH 17 0
BBX 13 22 2 0
BITMAP
0600
0F00
1D80
38C0
0000
0000
0000
E078
E078
E078
E078
E078
E078
E078
E078
E078
E078
E078
F0F8
FFF8
FFF8
7E38
ENDCHAR
STARTCHAR 00FC
ENCODING 252
SWIDTH 607 0
DWIDTH 17 0
BBX 13 22 2 0
BITMAP
30C0
39C0
39C0
39C0
0000
0000
0000
E078
E078
E078
E078
E078
E078
E078
E078
E078
E078
E078
F0F8
FFF8
FFF8
7E38
ENDCHAR
STARTCHAR 00FD
ENCODING 253
SWIDTH 571 0
DWIDTH 16 0
BBX 15 29 0 -7
BITMAP
0070
00E0
00C0
0180
0000
0000
0000
F00E
701E
781E
781C
381C
383C
3C3C
3C38
1C38
1C78
1E78
0E70
0FF0
07F0
03F0
00E0
00E0
01E0
01E0
01C0
01C0
0380
ENDCHAR
STARTCHAR 00FE
ENCODING 254
SWIDTH 571 0
DWIDTH 16 0
BBX 13 28 2 -7
BITMAP
E000
E000
E000
E000
E000
E000
E7C0
FFE0
FFF0
E070
E078
E078
E078
E038
E078
E078
E078
E078
FFF0
FFF0
EFC0
E000
E000
E000
E000
E000
E000
E000
ENDCHAR
STARTCHAR 00FF
ENCODING 255
SWIDTH 571 0
DWIDTH 16 0
BBX 15 29 0 -7
BITMAP
0C60
1C70
1C70
1C70
0000
0000
0000
F00E
701E
781E
781C
381C
383C
3C3C
3C38
1C38
1C78
1E78
0E70
0FF0
07F0
03F0
00E0
00E0
01E0
01E0
01C0
01C0
0380
ENDCHAR
ENDFONT
