STARTFONT 2.1
COMMENT
COMMENT Converted from OpenType font "Exo-Bold.ttf" by "otf2bdf3\otf2bdf 3.0".
COMMENT
FONT -FreeType-Exo-Bold-R-Normal--100-720-100-100-P-484-ISO10646-1
SIZE 72 100 100
FONTBOUNDINGBOX 84 77 0 -1
STARTPROPERTIES 19
FOUNDRY "FreeType"
FAMILY_NAME "Exo"
WEIGHT_NAME "Bold"
SLANT "R"
SETWIDTH_NAME "Normal"
ADD_STYLE_NAME ""
PIXEL_SIZE 100
POINT_SIZE 720
RESOLUTION_X 100
RESOLUTION_Y 100
SPACING "P"
AVERAGE_WIDTH 484
CHARSET_REGISTRY "ISO10646"
CHARSET_ENCODING "1"
FONT_ASCENT 100
FONT_DESCENT 32
COPYRIGHT "Copyright 2017 The Exo Project Authors (https://github.com/NDISCOVER/Exo-1.0)"
_OTF_FONTFILE "Exo-Bold.ttf"
_OTF_PSNAME "Exo-Bold"
ENDPROPERTIES
CHARS 13
STARTCHAR 002E
ENCODING 46
SWIDTH 230 0
DWIDTH 23 0
BBX 13 14 5 0
BITMAP
7FF8
FFF8
FFF8
FFF8
FFF8
FFF8
FFF8
FFF8
FFF8
FFF8
FFF8
FFF8
FFF8
7FF8
ENDCHAR
STARTCHAR 0030
ENCODING 48
SWIDTH 650 0
DWIDTH 65 0
BBX 54 75 5 0
BITMAP
00003FFFF80000
000FFFFFFFE000
003FFFFFFFF800
00FFFFFFFFFE00
01FFFFFFFFFF00
03FFFFFFFFFF80
07FFFFFFFFFFC0
0FFFFFFFFFFFE0
1FFFFFFFFFFFF0
1FFFFFFFFFFFF0
3FFFFFFFFFFFF8
3FFFFFFFFFFFF8
3FFFFFFFFFFFF8
7FFFFFFFFFFFF8
7FFFE0000FFFFC
7FFF800007FFFC
7FFF800003FFFC
7FFF000001FFFC
7FFF000001FFFC
FFFE000001FFFC
FFFE000001FFFC
FFFE000001FFFC
FFFE000001FFFC
FFFE000001FFFC
FFFE000001FFFC
FFFE000001FFFC
FFFE000001FFFC
FFFE000001FFFC
FFFE000001FFFC
FFFE000001FFFC
FFFE000001FFFC
FFFE000001FFFC
FFFE000001FFFC
FFFE000001FFFC
FFFE000001FFFC
FFFE000001FFFC
FFFE000001FFFC
FFFE000001FFFC
FFFE000001FFFC
FFFE000001FFFC
FFFE000001FFFC
FFFE000001FFFC
FFFE000001FFFC
FFFE000001FFFC
FFFE000001FFFC
FFFE000001FFFC
FFFE000001FFFC
FFFE000001FFFC
FFFE000001FFFC
FFFE000001FFFC
FFFE000001FFFC
FFFE000001FFFC
FFFE000001FFFC
FFFE000001FFFC
FFFE000001FFFC
FFFE000001FFFC
FFFF000001FFFC
7FFF000001FFFC
7FFF000001FFFC
7FFF800003FFFC
7FFFC00007FFFC
7FFFF0001FFFFC
7FFFFFFFFFFFFC
7FFFFFFFFFFFF8
3FFFFFFFFFFFF8
3FFFFFFFFFFFF8
1FFFFFFFFFFFF0
1FFFFFFFFFFFF0
0FFFFFFFFFFFE0
07FFFFFFFFFFC0
07FFFFFFFFFF80
01FFFFFFFFFF00
00FFFFFFFFFE00
003FFFFFFFF800
0007FFFFFFC000
ENDCHAR
STARTCHAR 0031
ENCODING 49
SWIDTH 370 0
DWIDTH 37 0
BBX 28 75 3 0
BITMAP
0003FFF0
000FFFF0
003FFFF0
01FFFFF0
07FFFFF0
1FFFFFF0
7FFFFFF0
FFFFFFF0
FFFFFFF0
FFFFFFF0
FFFFFFF0
FFFFFFF0
FFFFFFF0
FFFFFFF0
FFFFFFF0
FC07FFF0
0007FFF0
0007FFF0
0007FFF0
0007FFF0
0007FFF0
0007FFF0
0007FFF0
0007FFF0
0007FFF0
0007FFF0
0007FFF0
0007FFF0
0007FFF0
0007FFF0
0007FFF0
0007FFF0
0007FFF0
0007FFF0
0007FFF0
0007FFF0
0007FFF0
0007FFF0
0007FFF0
0007FFF0
0007FFF0
0007FFF0
0007FFF0
0007FFF0
0007FFF0
0007FFF0
0007FFF0
0007FFF0
0007FFF0
0007FFF0
0007FFF0
0007FFF0
0007FFF0
0007FFF0
0007FFF0
0007FFF0
0007FFF0
0007FFF0
0007FFF0
0007FFF0
0007FFF0
0007FFF0
0007FFF0
0007FFF0
0007FFF0
0007FFF0
0007FFF0
0007FFF0
0007FFF0
0007FFF0
0007FFF0
0007FFF0
0007FFF0
0007FFF0
0007FFF0
ENDCHAR
STARTCHAR 0032
ENCODING 50
SWIDTH 590 0
DWIDTH 59 0
BBX 50 75 5 0
BITMAP
00000BF0000000
007FFFFFE00000
1FFFFFFFFC0000
7FFFFFFFFF0000
7FFFFFFFFF8000
7FFFFFFFFFE000
7FFFFFFFFFF000
7FFFFFFFFFF000
7FFFFFFFFFF800
7FFFFFFFFFFC00
7FFFFFFFFFFC00
7FFFFFFFFFFC00
7FFFFFFFFFFE00
7FFFFFFFFFFE00
000001FFFFFE00
00000007FFFE00
00000003FFFF00
00000001FFFF00
00000000FFFF00
00000000FFFF00
000000007FFF00
000000007FFF00
000000007FFF00
000000007FFF00
000000007FFF00
000000007FFE00
000000007FFE00
00000000FFFE00
00000000FFFE00
00000001FFFE00
00000001FFFC00
00000003FFFC00
00000003FFF800
00000007FFF800
0000000FFFF000
0000001FFFF000
0000003FFFE000
0000007FFFE000
000000FFFFC000
000001FFFF8000
000003FFFF0000
000007FFFE0000
00000FFFFE0000
00001FFFFC0000
00003FFFF80000
00007FFFF00000
0000FFFFE00000
0001FFFFC00000
0003FFFF000000
0007FFFE000000
000FFFFC000000
001FFFF8000000
003FFFF0000000
007FFFE0000000
00FFFFC0000000
01FFFF80000000
03FFFF00000000
07FFFE00000000
0FFFFC00000000
1FFFF800000000
3FFFF000000000
7FFFE000000000
FFFFFFFFFFFFC0
FFFFFFFFFFFFC0
FFFFFFFFFFFFC0
FFFFFFFFFFFFC0
FFFFFFFFFFFFC0
FFFFFFFFFFFFC0
FFFFFFFFFFFFC0
FFFFFFFFFFFFC0
FFFFFFFFFFFFC0
FFFFFFFFFFFFC0
FFFFFFFFFFFFC0
FFFFFFFFFFFFC0
FFFFFFFFFFFFC0
ENDCHAR
STARTCHAR 0033
ENCODING 51
SWIDTH 580 0
DWIDTH 58 0
BBX 49 76 4 -1
BITMAP
00000FFC000000
007FFFFFF00000
3FFFFFFFFE0000
7FFFFFFFFF8000
7FFFFFFFFFC000
7FFFFFFFFFE000
7FFFFFFFFFF000
7FFFFFFFFFF800
7FFFFFFFFFFC00
7FFFFFFFFFFC00
7FFFFFFFFFFE00
7FFFFFFFFFFE00
7FFFFFFFFFFE00
7FFFFFFFFFFF00
000001FFFFFF00
00000007FFFF00
00000001FFFF00
00000000FFFF00
000000007FFF00
000000007FFF00
000000007FFF00
000000007FFF00
000000007FFF00
000000007FFF00
000000007FFF00
000000007FFF00
000000007FFF00
000000007FFF00
00000000FFFF00
00000001FFFE00
0000000FFFFE00
00007FFFFFFE00
03FFFFFFFFFC00
03FFFFFFFFF800
03FFFFFFFFF000
03FFFFFFFFE000
03FFFFFFFFC000
03FFFFFFFF0000
03FFFFFFFF8000
03FFFFFFFFE000
03FFFFFFFFF000
03FFFFFFFFF800
03FFFFFFFFFC00
03FFFFFFFFFC00
0000001FFFFE00
00000001FFFF00
00000000FFFF00
000000007FFF00
000000003FFF80
000000003FFF80
000000003FFF80
000000003FFF80
000000003FFF80
000000003FFF80
000000003FFF80
000000003FFF80
000000003FFF80
000000003FFF80
000000007FFF80
00000000FFFF80
00000001FFFF80
0000007FFFFF80
FFFFFFFFFFFF80
FFFFFFFFFFFF00
FFFFFFFFFFFF00
FFFFFFFFFFFF00
FFFFFFFFFFFE00
FFFFFFFFFFFE00
FFFFFFFFFFFC00
FFFFFFFFFFF800
FFFFFFFFFFF000
FFFFFFFFFFE000
FFFFFFFFFF8000
FFFFFFFFFF0000
01FFFFFFF80000
000003FC000000
ENDCHAR
STARTCHAR 0034
ENCODING 52
SWIDTH 620 0
DWIDTH 62 0
BBX 58 74 2 0
BITMAP
000000FFFE000000
000000FFFE000000
000001FFFC000000
000001FFFC000000
000003FFF8000000
000003FFF8000000
000007FFF0000000
000007FFF0000000
00000FFFE0000000
00000FFFE0000000
00001FFFC0000000
00001FFFC0000000
00003FFFC0000000
00003FFF80000000
00007FFF80000000
00007FFF00000000
00007FFF00000000
0000FFFE00000000
0000FFFE00000000
0001FFFC00000000
0001FFFC00000000
0003FFF800000000
0003FFF800000000
0007FFF003FFC000
0007FFF003FFC000
000FFFE007FFC000
000FFFE007FFC000
001FFFC007FFC000
001FFFC00FFFC000
003FFFC00FFFC000
003FFF800FFFC000
003FFF801FFFC000
007FFF001FFFC000
007FFF001FFFC000
00FFFE001FFFC000
00FFFE001FFFC000
01FFFC001FFFC000
01FFFC001FFFC000
03FFF8001FFFC000
03FFF8001FFFC000
07FFF0001FFFC000
07FFF0001FFFC000
0FFFE0001FFFC000
0FFFE0001FFFC000
1FFFC0001FFFC000
1FFFC0001FFFC000
1FFFFFFFFFFFFFC0
3FFFFFFFFFFFFFC0
3FFFFFFFFFFFFFC0
7FFFFFFFFFFFFFC0
7FFFFFFFFFFFFFC0
FFFFFFFFFFFFFFC0
7FFFFFFFFFFFFFC0
7FFFFFFFFFFFFFC0
3FFFFFFFFFFFFFC0
3FFFFFFFFFFFFFC0
3FFFFFFFFFFFFF00
1FFFFFFFFFFFF800
000000001FFFC000
000000001FFFC000
000000001FFFC000
000000001FFFC000
000000001FFFC000
000000001FFFC000
000000001FFFC000
000000001FFFC000
000000001FFFC000
000000001FFFC000
000000001FFFC000
000000001FFFC000
000000001FFFC000
000000001FFFC000
000000001FFFC000
000000001FFFC000
ENDCHAR
STARTCHAR 0035
ENCODING 53
SWIDTH 610 0
DWIDTH 61 0
BBX 50 75 6 -1
BITMAP
1FFFFFFFFFFE00
1FFFFFFFFFFE00
1FFFFFFFFFFE00
1FFFFFFFFFFE00
1FFFFFFFFFFE00
1FFFFFFFFFFE00
1FFFFFFFFFFE00
1FFFFFFFFFFE00
1FFFFFFFFFFE00
1FFFFFFFFFFE00
3FFFFFFFFFFE00
3FFFFFFFFFFE00
3FFFFFFFFFFE00
3FFF0000000000
3FFF0000000000
3FFF0000000000
3FFF0000000000
3FFF0000000000
3FFE0000000000
3FFE0000000000
3FFE0000000000
3FFE0000000000
3FFE0000000000
3FFE0000000000
3FFE0000000000
3FFE0000000000
3FFE0000000000
3FFE0000000000
3FFE1FFFFF0000
3FFE7FFFFFC000
3FFFFFFFFFF000
3FFFFFFFFFF800
7FFFFFFFFFFC00
7FFFFFFFFFFE00
7FFFFFFFFFFE00
7FFFFFFFFFFF00
7FFFFFFFFFFF80
7FFFFFFFFFFF80
7FFFFFFFFFFF80
7FFFFFFFFFFFC0
7FFFE001FFFFC0
7FFF80007FFFC0
7FFF00003FFFC0
7FFF00001FFFC0
7FFE00001FFFC0
7FFE00001FFFC0
000000001FFFC0
000000001FFFC0
000000001FFFC0
000000001FFFC0
000000001FFFC0
000000001FFFC0
000000001FFFC0
000000001FFFC0
000000001FFFC0
000000001FFFC0
000000001FFFC0
000000003FFFC0
000000007FFFC0
00000000FFFFC0
00000001FFFFC0
FFFFFFFFFFFFC0
FFFFFFFFFFFF80
FFFFFFFFFFFF80
FFFFFFFFFFFF80
FFFFFFFFFFFF00
FFFFFFFFFFFE00
FFFFFFFFFFFE00
FFFFFFFFFFFC00
FFFFFFFFFFF800
FFFFFFFFFFE000
FFFFFFFFFFC000
FFFFFFFFFE0000
03FFFFFFF00000
000001E0000000
ENDCHAR
STARTCHAR 0036
ENCODING 54
SWIDTH 610 0
DWIDTH 61 0
BBX 51 76 5 -1
BITMAP
0000007C800000
00001FFFFFF000
0000FFFFFFFE00
0003FFFFFFFE00
000FFFFFFFFE00
001FFFFFFFFE00
003FFFFFFFFE00
007FFFFFFFFE00
00FFFFFFFFFE00
01FFFFFFFFFE00
03FFFFFFFFFE00
03FFFFFFFFFE00
07FFFFFFFFFE00
0FFFFFFFFFFE00
0FFFFF00000000
0FFFFC00000000
1FFFF000000000
1FFFE000000000
1FFFC000000000
3FFFC000000000
3FFF8000000000
3FFF8000000000
3FFF0000000000
7FFF0000000000
7FFF0000000000
7FFE0000000000
7FFE0000000000
7FFE0000000000
7FFE0000000000
FFFE0000000000
FFFE001FC00000
FFFE7FFFFF8000
FFFFFFFFFFE000
FFFFFFFFFFF800
FFFFFFFFFFFC00
FFFFFFFFFFFF00
FFFFFFFFFFFF00
FFFFFFFFFFFF80
FFFFFFFFFFFFC0
FFFFFFFFFFFFC0
FFFFFFFFFFFFC0
FFFFFFFFFFFFE0
FFFFFFFFFFFFE0
FFFE0000FFFFE0
FFFE00003FFFE0
FFFE00001FFFE0
FFFE00000FFFE0
FFFE00000FFFE0
FFFE00000FFFE0
FFFE00000FFFE0
7FFE00000FFFE0
7FFE00000FFFE0
7FFF00000FFFE0
7FFF00000FFFE0
7FFF00000FFFE0
7FFF00000FFFE0
7FFF80000FFFE0
3FFF80000FFFE0
3FFFC0000FFFE0
3FFFC0001FFFE0
3FFFE0001FFFE0
1FFFF8007FFFE0
1FFFFFFFFFFFE0
1FFFFFFFFFFFE0
0FFFFFFFFFFFE0
0FFFFFFFFFFFC0
07FFFFFFFFFFC0
07FFFFFFFFFF80
03FFFFFFFFFF80
01FFFFFFFFFF00
00FFFFFFFFFE00
007FFFFFFFFC00
003FFFFFFFF800
000FFFFFFFE000
0003FFFFFF0000
000007FFC00000
ENDCHAR
STARTCHAR 0037
ENCODING 55
SWIDTH 550 0
DWIDTH 55 0
BBX 51 74 2 0
BITMAP
FFFFFFFFFFFE00
FFFFFFFFFFFF00
FFFFFFFFFFFF80
FFFFFFFFFFFF80
FFFFFFFFFFFFC0
FFFFFFFFFFFFC0
FFFFFFFFFFFFE0
FFFFFFFFFFFFC0
FFFFFFFFFFFFC0
FFFFFFFFFFFFC0
FFFFFFFFFFFF80
FFFFFFFFFFFF80
FFFFFFFFFFFF80
FFFFFFFFFFFF00
FFFFFFFFFFFF00
00000000FFFF00
00000001FFFE00
00000001FFFE00
00000003FFFE00
00000003FFFC00
00000003FFFC00
00000007FFF800
00000007FFF800
00000007FFF800
0000000FFFF000
0000000FFFF000
0000001FFFF000
0000001FFFE000
0000001FFFE000
0000003FFFE000
0000003FFFC000
0000003FFFC000
0000007FFF8000
0000007FFF8000
000000FFFF8000
000000FFFF0000
000000FFFF0000
000001FFFF0000
000001FFFE0000
000001FFFE0000
000003FFFE0000
000003FFFC0000
000007FFFC0000
000007FFF80000
000007FFF80000
00000FFFF80000
00000FFFF00000
00000FFFF00000
00001FFFF00000
00001FFFE00000
00001FFFE00000
00003FFFE00000
00003FFFC00000
00007FFFC00000
00007FFF800000
00007FFF800000
0000FFFF800000
0000FFFF000000
0000FFFF000000
0001FFFF000000
0001FFFE000000
0003FFFE000000
0003FFFE000000
0003FFFC000000
0007FFFC000000
0007FFF8000000
0007FFF8000000
000FFFF8000000
000FFFF0000000
001FFFF0000000
001FFFF0000000
001FFFE0000000
003FFFE0000000
003FFFE0000000
ENDCHAR
STARTCHAR 0038
ENCODING 56
SWIDTH 630 0
DWIDTH 63 0
BBX 51 75 6 0
BITMAP
0000FFFFC00000
001FFFFFFF0000
007FFFFFFFC000
01FFFFFFFFF000
03FFFFFFFFF800
07FFFFFFFFFC00
0FFFFFFFFFFE00
1FFFFFFFFFFF00
1FFFFFFFFFFF00
3FFFFFFFFFFF80
3FFFFFFFFFFF80
3FFFFFFFFFFF80
7FFFFFFFFFFF80
7FFFE000FFFF80
7FFF80003FFFC0
7FFF00003FFFC0
7FFF00001FFFC0
7FFF00001FFFC0
7FFF00001FFFC0
7FFF00001FFFC0
7FFF00001FFFC0
7FFF00001FFFC0
7FFF00001FFFC0
7FFF00001FFFC0
7FFF00001FFFC0
7FFF00001FFFC0
7FFF00001FFF80
7FFF00001FFF80
3FFF80003FFF80
3FFF80007FFF80
3FFFE000FFFF00
3FFFFFFFFFFF00
1FFFFFFFFFFF00
1FFFFFFFFFFE00
0FFFFFFFFFFC00
07FFFFFFFFF800
01FFFFFFFFF000
01FFFFFFFFFC00
07FFFFFFFFFF00
0FFFFFFFFFFF00
1FFFFFFFFFFF80
3FFFFFFFFFFFC0
7FFFFFFFFFFFC0
7FFFFFFFFFFFC0
7FFFC0003FFFC0
FFFF00001FFFE0
FFFF00001FFFE0
FFFE00000FFFE0
FFFE00000FFFE0
FFFE00000FFFE0
FFFE00000FFFE0
FFFE00000FFFE0
FFFE00000FFFE0
FFFE00000FFFE0
FFFE00000FFFE0
FFFE00000FFFE0
FFFE00000FFFE0
FFFE00000FFFE0
FFFE00000FFFE0
FFFE00000FFFE0
FFFF00001FFFE0
FFFF80001FFFE0
FFFFE0007FFFE0
FFFFFFFFFFFFE0
FFFFFFFFFFFFE0
7FFFFFFFFFFFC0
7FFFFFFFFFFFC0
7FFFFFFFFFFFC0
3FFFFFFFFFFF80
1FFFFFFFFFFF00
1FFFFFFFFFFF00
07FFFFFFFFFE00
03FFFFFFFFF800
00FFFFFFFFF000
001FFFFFFF8000
ENDCHAR
STARTCHAR 0039
ENCODING 57
SWIDTH 610 0
DWIDTH 61 0
BBX 51 76 5 -1
BITMAP
00003FF8000000
001FFFFFF00000
00FFFFFFFE0000
03FFFFFFFF8000
07FFFFFFFFC000
0FFFFFFFFFE000
1FFFFFFFFFF000
3FFFFFFFFFF800
3FFFFFFFFFFC00
7FFFFFFFFFFC00
7FFFFFFFFFFE00
FFFFFFFFFFFE00
FFFFFFFFFFFF00
FFFFFFFFFFFF00
FFFFC003FFFF00
FFFF0000FFFF80
FFFE00007FFF80
FFFE00007FFF80
FFFE00003FFF80
FFFE00003FFFC0
FFFE00001FFFC0
FFFE00001FFFC0
FFFE00001FFFC0
FFFE00001FFFC0
FFFE00000FFFC0
FFFE00000FFFC0
FFFE00000FFFC0
FFFE00000FFFE0
FFFE00000FFFE0
FFFE00000FFFE0
FFFF00000FFFE0
FFFF80000FFFE0
FFFFE0000FFFE0
FFFFFFFFFFFFE0
FFFFFFFFFFFFE0
7FFFFFFFFFFFE0
7FFFFFFFFFFFE0
7FFFFFFFFFFFE0
3FFFFFFFFFFFE0
1FFFFFFFFFFFE0
0FFFFFFFFFFFE0
07FFFFFFFFFFE0
03FFFFFFFFFFE0
00FFFFFFFFFFE0
001FFFFF8FFFE0
00003C000FFFE0
000000000FFFC0
000000000FFFC0
000000000FFFC0
000000000FFFC0
000000001FFFC0
000000001FFFC0
000000001FFFC0
000000001FFF80
000000003FFF80
000000003FFF80
000000007FFF80
000000007FFF00
00000000FFFF00
00000001FFFF00
00000007FFFE00
0000001FFFFE00
0FFFFFFFFFFC00
0FFFFFFFFFFC00
0FFFFFFFFFF800
0FFFFFFFFFF800
0FFFFFFFFFF000
0FFFFFFFFFE000
0FFFFFFFFFC000
0FFFFFFFFF8000
0FFFFFFFFF0000
0FFFFFFFFE0000
0FFFFFFFF80000
0FFFFFFFE00000
00FFFFFF000000
00000F00000000
ENDCHAR
STARTCHAR 004D
ENCODING 77
SWIDTH 880 0
DWIDTH 88 0
BBX 80 74 4 0
BITMAP
007FFE000000007FFE00
007FFF000000007FFE00
007FFF00000000FFFF00
007FFF00000000FFFF00
00FFFF80000000FFFF00
00FFFF80000001FFFF00
00FFFF80000001FFFF00
00FFFF80000001FFFF00
00FFFFC0000001FFFF00
00FFFFC0000003FFFF00
00FFFFC0000003FFFF00
00FFFFE0000003FFFF80
00FFFFE0000007FFFF80
01FFFFE0000007FFFF80
01FFFFF0000007FFFF80
01FFFFF000000FFFFF80
01FFFFF000000FFFFF80
01FFFFF000000FFFFF80
01FFFFF800000FFFFF80
01FFFFF800001FFFFFC0
01FFFFF800001FFFFFC0
03FFFFFC00001FFFFFC0
03FFFFFC00003FFFFFC0
03FFFFFC00003FFFFFC0
03FFFFFE00003FFFFFC0
03FFFFFE00007FFFFFC0
03FFFFFE00007FFFFFC0
03FFF7FE00007FEFFFC0
03FFF7FF00007FEFFFE0
03FFF7FF0000FFEFFFE0
07FFF7FF0000FFEFFFE0
07FFF3FF8000FFC7FFE0
07FFE3FF8001FFC7FFE0
07FFE3FF8001FFC7FFE0
07FFE3FFC001FFC7FFE0
07FFE1FFC001FF87FFE0
07FFE1FFC003FF87FFE0
07FFE1FFC003FF87FFF0
07FFE1FFE003FF07FFF0
0FFFE0FFE007FF03FFF0
0FFFE0FFE007FF03FFF0
0FFFC0FFF007FF03FFF0
0FFFC07FF00FFE03FFF0
0FFFC07FF00FFE03FFF0
0FFFC07FF80FFE03FFF0
0FFFC07FF80FFE03FFF8
0FFFC03FF81FFC03FFF8
1FFFC03FF81FFC03FFF8
1FFFC03FFC1FFC01FFF8
1FFFC03FFC3FFC01FFF8
1FFF801FFC3FF801FFF8
1FFF801FFE3FF801FFF8
1FFF801FFE7FF801FFF8
1FFF800FFE7FF001FFF8
1FFF800FFF7FF001FFFC
1FFF800FFF7FF001FFFC
3FFF800FFFFFF000FFFC
3FFF8007FFFFE000FFFC
3FFF0007FFFFE000FFFC
3FFF0007FFFFE000FFFC
3FFF0007FFFFE000FFFC
3FFF0003FFFFC000FFFC
3FFF0003FFFFC000FFFE
3FFF0003FFFFC000FFFE
7FFF0001FFFFC000FFFE
7FFF0001FFFF80007FFE
7FFF0001FFFF80007FFE
7FFE0001FFFF80007FFE
7FFE0000FFFF00007FFE
7FFE0000FFFF00007FFE
7FFE0000FFFF00007FFE
7FFE0000FFFF00007FFF
7FFE00007FFE00007FFF
FFFE00007FFE00003FFF
ENDCHAR
STARTCHAR 00BA
ENCODING 186
SWIDTH 430 0
DWIDTH 43 0
BBX 37 51 3 25
BITMAP
0003FE0000
00FFFFF000
03FFFFFC00
07FFFFFF00
0FFFFFFF80
1FFFFFFFC0
3FFFFFFFC0
3FFFFFFFE0
7FFFFFFFE0
7FFFFFFFF0
7FFE03FFF0
FFFC01FFF0
FFF801FFF0
FFF800FFF8
FFF800FFF8
FFF800FFF8
FFF800FFF8
FFF800FFF8
FFF800FFF8
FFF800FFF8
FFF800FFF8
FFF800FFF8
FFF800FFF8
FFF800FFF8
FFF800FFF8
FFF800FFF8
FFF800FFF8
FFF801FFF8
FFF801FFF0
7FFC01FFF0
7FFE07FFF0
7FFFFFFFF0
3FFFFFFFE0
3FFFFFFFE0
1FFFFFFFC0
1FFFFFFF80
0FFFFFFF80
03FFFFFE00
00FFFFFC00
001FFFE000
0000000000
0000000000
0000000000
0000000000
FFFFFFFFF0
FFFFFFFFF0
FFFFFFFFF0
FFFFFFFFF0
FFFFFFFFF0
FFFFFFFFF0
FFFFFFFFF0
ENDCHAR
ENDFONT
